<?xml version="1.0" encoding="UTF-8"?>
<svg width="192px" height="36px" viewBox="0 0 192 36" version="1.1" xmlns="http://www.w3.org/2000/svg" xmlns:xlink="http://www.w3.org/1999/xlink">
    <!-- Generator: Sketch 60.1 (88133) - https://sketch.com -->
    <title>Logo</title>
    <desc>Created with Sketch.</desc>
    <g id="Designs" stroke="none" stroke-width="1" fill="none" fill-rule="evenodd">
        <g id="Nav-Light" transform="translate(-165.000000, -17.000000)" fill="#ffffff" fill-rule="nonzero">
            <g id="Nav">
                <path d="M204.78234,17 L216.3,34.5487327 L204.781083,52.1 L189.278087,42.0779913 L182.711066,52.0496254 L165,43.3627017 L165,25.739516 L182.71138,17.0522755 L189.274002,27.0251769 L204.78234,17 Z M178.643403,35.2036024 L166.656602,42.9530518 L182.330538,50.6404042 L188.360231,41.4849018 L178.643403,35.2036024 Z M204.623655,18.7498041 L194.224641,34.5487327 L204.623655,50.3479781 L214.992818,34.5487327 L204.623655,18.7498041 Z M182.330538,18.4611799 L166.656917,26.149166 L176.026524,32.2061559 L202.737039,49.4729176 L193.718737,35.7675443 L192.916516,34.5487327 L188.356146,27.6185832 L182.330538,18.4611799 Z M329.670821,27.0813245 L333.689109,37.9048073 L337.646593,27.7706627 L339.310658,27.7706627 L333.628305,42 L329.650204,31.175121 L325.388352,42 L320.192778,27.7706627 L321.857193,27.7706627 L325.429237,37.9048073 L329.670821,27.0813245 Z M297.676529,27 L299.787536,41.2904179 L298.245428,41.2904179 L296.966104,31.8850521 L292.360047,41.8575949 L287.813745,31.8850521 L286.474316,41.2904179 L284.932207,41.2904179 L287.184741,27.0202439 L292.380315,38.4321947 L297.676529,27 Z M349.95795,27.5469332 C353.85463,27.5469332 357,30.5063757 357,34.5404877 C357,38.5533088 353.874898,41.5333442 349.95795,41.5333442 C346.041002,41.5333442 342.916249,38.5533088 342.916249,34.5404877 C342.916249,30.5063757 346.061619,27.5469332 349.95795,27.5469332 Z M261.763541,27.7706627 L261.763541,36.0608712 C261.763541,37.1959233 261.763541,38.4321947 262.839138,39.3445644 C263.38707,39.8112202 264.320792,40.1148781 265.071753,40.1148781 C265.822714,40.1148781 266.756086,39.8112202 267.304019,39.3445644 C268.31986,38.4828819 268.376296,37.3322871 268.379431,36.2509109 L268.379616,27.7706627 L269.881188,27.7706627 L269.881188,36.4660974 C269.881188,37.6011495 269.759581,38.6957139 269.028888,39.7096519 C268.217123,40.8237621 266.796622,41.5333442 265.071753,41.5333442 C263.346535,41.5333442 261.926034,40.8237621 261.114269,39.7096519 C260.383925,38.6957139 260.261969,37.6011495 260.261969,36.4660974 L260.261969,27.7706627 L261.763541,27.7706627 Z M246.812464,27.5469332 C250.708794,27.5469332 253.854514,30.5063757 253.854514,34.5404877 C253.854514,38.5533088 250.729062,41.5333442 246.812464,41.5333442 C242.895865,41.5333442 239.770763,38.5533088 239.770763,34.5404877 C239.770763,30.5063757 242.915783,27.5469332 246.812464,27.5469332 Z M311.207105,27.1218122 L317.275597,41.2904179 L315.611182,41.2904179 L314.028538,37.4796863 L308.264415,37.4796863 L306.640536,41.2904179 L304.97682,41.2904179 L311.207105,27.1218122 Z M226.745137,27.7706627 L230.195224,33.8106618 L233.686197,27.7706627 L235.431334,27.7706627 L230.945836,35.4727522 L230.945836,41.2904179 L229.444613,41.2904179 L229.444613,35.4727522 L225,27.7706627 L226.745137,27.7706627 Z M349.95795,28.9660974 C346.914269,28.9660974 344.458358,31.4386402 344.458358,34.5404877 C344.458358,37.6416372 346.914269,40.1148781 349.95795,40.1148781 C353.00233,40.1148781 355.457892,37.6416372 355.457892,34.5404877 C355.457892,31.4386402 353.00233,28.9660974 349.95795,28.9660974 Z M246.812464,28.9660974 C243.768433,28.9660974 241.312871,31.4386402 241.312871,34.5404877 C241.312871,37.6416372 243.768433,40.1148781 246.812464,40.1148781 C249.856843,40.1148781 252.312405,37.6416372 252.312405,34.5404877 C252.312405,31.4386402 249.856843,28.9660974 246.812464,28.9660974 Z M202.737667,19.6273992 L189.876688,27.9411073 L193.570422,33.5548642 L202.737667,19.6273992 Z" id="Logo"></path>
            </g>
        </g>
    </g>
</svg>