<?xml version="1.0" encoding="UTF-8"?>
<svg width="84px" height="50px" viewBox="0 0 84 50" version="1.1" xmlns="http://www.w3.org/2000/svg" xmlns:xlink="http://www.w3.org/1999/xlink">
    <!-- Generator: Sketch 60.1 (88133) - https://sketch.com -->
    <title>DesignAward</title>
    <desc>Created with Sketch.</desc>
    <g id="Designs" stroke="none" stroke-width="1" fill="none" fill-rule="evenodd">
        <g id="Landing_Desktop" transform="translate(-338.000000, -805.000000)" fill="#FFFFFF" fill-rule="nonzero">
            <g id="Hero" transform="translate(0.000000, 0.000000)">
                <g id="Logos" transform="translate(166.000000, 769.000000)">
                    <g id="DesignAward" transform="translate(172.830000, 36.000000)">
                        <path d="M45.9006211,3.97515528 L44.689441,3.97515528 L44.689441,2.76397516 L47.4223602,2.76397516 L47.4223602,6.24223602 C46.5838509,6.64596273 45.621118,6.86335404 44.3478261,6.86335404 C43.2608696,6.86335404 42.2049689,6.49068323 42.2049689,4.9068323 L42.2049689,2.29813665 C42.2049689,0.714285714 42.826087,-4.97379915e-14 44.5652174,-4.97379915e-14 C45.310559,-4.97379915e-14 46.242236,0.0931677019 47.2049689,0.248447205 L46.9254658,1.42857143 C45.9006211,1.27329193 45.2484472,1.21118012 44.7204969,1.21118012 C43.8198758,1.21118012 43.6956522,1.55279503 43.6956522,2.36024845 L43.6956522,4.8757764 C43.6956522,5.52795031 43.9440994,5.65217391 44.6273292,5.65217391 C44.9689441,5.65217391 45.4968944,5.55900621 45.8385093,5.46583851 L45.8385093,3.97515528 L45.9006211,3.97515528 Z" id="Path"></path>
                        <polygon id="Path" points="48.9130435 6.73913043 48.9130435 0.0621118012 53.5403727 0.0621118012 53.3229814 1.30434783 50.4347826 1.30434783 50.4347826 2.63975155 53.2919255 2.63975155 53.1055901 3.91304348 50.4347826 3.91304348 50.4347826 5.49689441 53.4782609 5.49689441 53.4782609 6.73913043"></polygon>
                        <path d="M58.5403727,6.73913043 L57.2981366,4.06832298 L56.3975155,4.06832298 L56.3975155,6.73913043 L54.8757764,6.73913043 L54.8757764,0.0621118012 L57.4534161,0.0621118012 C58.8198758,0.0621118012 59.8757764,0.279503106 59.8757764,2.01863354 L59.8757764,2.29813665 C59.8757764,3.13664596 59.5341615,3.66459627 58.7888199,3.94409938 L60.2484472,6.77018634 L58.5403727,6.77018634 L58.5403727,6.73913043 Z M58.3850932,1.89440994 C58.3850932,1.49068323 58.1987578,1.30434783 57.5776398,1.30434783 L56.4285714,1.30434783 L56.4285714,2.95031056 L57.7329193,2.95031056 C58.1987578,2.95031056 58.4161491,2.76397516 58.4161491,2.32919255 L58.4161491,1.89440994 L58.3850932,1.89440994 Z" id="Shape"></path>
                        <polygon id="Path" points="67.0186335 6.73913043 67.0186335 2.32919255 65.4037267 5.71428571 64.4409938 5.71428571 62.826087 2.32919255 62.826087 6.73913043 61.3354037 6.73913043 61.3354037 0.0621118012 63.1987578 0.0621118012 64.9068323 3.78881988 66.6459627 0.0621118012 68.5093168 0.0621118012 68.5093168 6.73913043"></polygon>
                        <path d="M74.2236025,6.73913043 L73.8198758,5.52795031 L71.5838509,5.52795031 L71.1801242,6.73913043 L69.5031056,6.73913043 L71.863354,0.0621118012 L73.5714286,0.0621118012 L75.9006211,6.73913043 L74.2236025,6.73913043 Z M72.7018634,1.55279503 L71.863354,4.34782609 L73.5403727,4.34782609 L72.7018634,1.55279503 Z" id="Shape"></path>
                        <polygon id="Path" points="80.8385093 6.73913043 78.3850932 2.54658385 78.3850932 6.73913043 76.9254658 6.73913043 76.9254658 0.0621118012 78.3850932 0.0621118012 80.8695652 4.22360248 80.8695652 0.0621118012 82.3602484 0.0621118012 82.3602484 6.73913043"></polygon>
                        <path d="M42.3913043,16.3354037 L42.3913043,8.35403727 L45.3726708,8.35403727 C47.5465839,8.35403727 48.5714286,8.94409938 48.5714286,11.0869565 L48.5714286,13.6024845 C48.5714286,15.3726708 48.0124224,16.3354037 45.5900621,16.3354037 L42.3913043,16.3354037 Z M46.7391304,11.1490683 C46.7391304,10.2795031 46.7080745,9.7826087 45.5590062,9.7826087 L44.2236025,9.7826087 L44.2236025,14.8447205 L45.4968944,14.8447205 C46.552795,14.8447205 46.7701863,14.5341615 46.7701863,13.7888199 L46.7701863,11.1490683 L46.7391304,11.1490683 Z" id="Shape"></path>
                        <polygon id="Path" points="50.1242236 16.3354037 50.1242236 8.35403727 55.621118 8.35403727 55.3726708 9.8447205 51.9254658 9.8447205 51.9254658 11.4285714 55.3416149 11.4285714 55.0931677 12.9192547 51.9254658 12.9192547 51.9254658 14.8136646 55.5590062 14.8136646 55.5590062 16.3354037"></polygon>
                        <path d="M63.0434783,14.068323 C63.0434783,15.4968944 62.0496894,16.3975155 59.9689441,16.3975155 C58.7888199,16.3975155 57.6397516,16.1801242 56.9254658,15.9937888 L57.4223602,14.5341615 C57.9192547,14.6583851 58.9440994,14.8757764 59.9378882,14.8757764 C60.8385093,14.8757764 61.1801242,14.5341615 61.1801242,13.9440994 L61.1801242,13.757764 C61.1801242,13.1055901 60.8695652,12.9192547 60.1242236,12.9192547 L59.1304348,12.9192547 C57.6397516,12.9192547 56.9254658,12.0807453 56.9254658,10.7453416 L56.9254658,10.5279503 C56.9565217,9.00621118 57.8571429,8.19875776 59.4099379,8.19875776 L59.689441,8.19875776 C60.7142857,8.19875776 62.2981366,8.38509317 63.0124224,8.47826087 L62.484472,9.9068323 C61.6459627,9.8136646 60.4658385,9.72049689 59.8757764,9.68944099 L59.5652174,9.68944099 C58.9751553,9.68944099 58.7888199,10 58.7888199,10.4658385 L58.7888199,10.6832298 C58.7888199,11.0869565 58.9440994,11.3664596 59.5031056,11.3664596 L60.6521739,11.3664596 C62.1118012,11.3664596 63.0434783,11.9565217 63.0434783,13.6024845 L63.0434783,14.068323 L63.0434783,14.068323 Z" id="Path"></path>
                        <rect id="Rectangle" x="64.5962733" y="8.35403727" width="1.80124224" height="7.98136646"></rect>
                        <path d="M72.4223602,13.0124224 L70.9627329,13.0124224 L70.9627329,11.552795 L74.2546584,11.552795 L74.2546584,15.6832298 C73.2298137,16.1801242 72.1118012,16.4285714 70.5900621,16.4285714 C69.2857143,16.4285714 68.0434783,15.9937888 68.0434783,14.0993789 L68.0434783,10.9937888 C68.0434783,9.09937888 68.7888199,8.26086957 70.8695652,8.26086957 C71.7701863,8.26086957 72.8881988,8.38509317 74.0372671,8.57142857 L73.7267081,9.9689441 C72.484472,9.7826087 71.7080745,9.72049689 71.0869565,9.72049689 C70,9.72049689 69.8757764,10.1552795 69.8757764,11.0869565 L69.8757764,14.0993789 C69.8757764,14.8757764 70.1863354,15 70.9937888,15 C71.3975155,15 72.0186335,14.9068323 72.4534161,14.7826087 L72.4534161,13.0124224 L72.4223602,13.0124224 Z" id="Path"></path>
                        <polygon id="Path" points="80.5279503 16.3354037 77.6086957 11.3043478 77.6086957 16.3354037 75.8695652 16.3354037 75.8695652 8.35403727 77.6086957 8.35403727 80.5900621 13.2919255 80.5900621 8.35403727 82.3602484 8.35403727 82.3602484 16.3354037"></polygon>
                        <path d="M47.173913,25.8385093 L46.7080745,24.4099379 L44.068323,24.4099379 L43.6024845,25.8385093 L41.6149068,25.8385093 L44.378882,17.9813665 L46.3975155,17.9813665 L49.1614907,25.8385093 L47.173913,25.8385093 Z M45.3726708,19.7204969 L44.378882,22.9813665 L46.3664596,22.9813665 L45.3726708,19.7204969 Z" id="Shape"></path>
                        <polygon id="Path" points="56.0869565 25.8385093 54.6583851 20.4347826 53.2608696 25.8385093 50.8695652 25.8385093 49.1304348 17.9813665 51.0869565 17.9813665 52.1118012 23.9440994 53.6645963 18.2298137 55.6832298 18.2298137 57.2049689 23.9440994 58.2298137 17.9813665 60.1863354 17.9813665 58.447205 25.8385093"></polygon>
                        <path d="M65.7142857,25.8385093 L65.2484472,24.4099379 L62.6086957,24.4099379 L62.1428571,25.8385093 L60.1552795,25.8385093 L62.9192547,17.9813665 L64.9378882,17.9813665 L67.7018634,25.8385093 L65.7142857,25.8385093 Z M63.9440994,19.7204969 L62.9503106,22.9813665 L64.9378882,22.9813665 L63.9440994,19.7204969 Z" id="Shape"></path>
                        <path d="M73.1055901,25.8385093 L71.6459627,22.7018634 L70.5900621,22.7018634 L70.5900621,25.8385093 L68.7888199,25.8385093 L68.7888199,17.9813665 L71.8322981,17.9813665 C73.447205,17.9813665 74.689441,18.2298137 74.689441,20.2795031 L74.689441,20.621118 C74.689441,21.6149068 74.2857143,22.2360248 73.3850932,22.5465839 L75.0931677,25.8695652 L73.1055901,25.8695652 L73.1055901,25.8385093 Z M72.9192547,20.1242236 C72.9192547,19.6273292 72.7018634,19.4099379 71.9565217,19.4099379 L70.621118,19.4099379 L70.621118,21.3354037 L72.1428571,21.3354037 C72.7018634,21.3354037 72.9192547,21.1180124 72.9192547,20.621118 L72.9192547,20.1242236 Z" id="Shape"></path>
                        <path d="M76.4596273,25.8385093 L76.4596273,17.9813665 L79.378882,17.9813665 C81.5217391,17.9813665 82.515528,18.5714286 82.515528,20.6832298 L82.515528,23.1677019 C82.515528,24.9378882 81.9565217,25.8695652 79.5962733,25.8695652 L76.4596273,25.8695652 L76.4596273,25.8385093 Z M80.7453416,20.7763975 C80.7453416,19.9068323 80.7142857,19.4409938 79.5962733,19.4409938 L78.2608696,19.4409938 L78.2608696,24.4409938 L79.5031056,24.4409938 C80.5590062,24.4409938 80.7453416,24.1304348 80.7453416,23.3850932 L80.7453416,20.7763975 Z" id="Shape"></path>
                        <path d="M47.5465839,32.6397516 C47.5465839,33.9130435 46.6770186,34.689441 44.8447205,34.689441 C43.7888199,34.689441 42.7950311,34.5031056 42.173913,34.3478261 L42.6086957,33.0745342 C43.0434783,33.1987578 43.9440994,33.3850932 44.8447205,33.3850932 C45.6521739,33.3850932 45.931677,33.0745342 45.931677,32.5776398 L45.931677,32.4223602 C45.931677,31.863354 45.6521739,31.6770186 45,31.6770186 L44.1304348,31.6770186 C42.826087,31.6770186 42.173913,30.931677 42.173913,29.7515528 L42.173913,29.5652174 C42.2049689,28.2298137 42.9813665,27.515528 44.378882,27.515528 L44.6273292,27.515528 C45.5279503,27.515528 46.8944099,27.6708075 47.5465839,27.7639752 L47.0807453,29.0062112 C46.3664596,28.9130435 45.310559,28.8198758 44.7826087,28.8198758 L44.5341615,28.8198758 C44.0062112,28.8198758 43.8509317,29.0993789 43.8509317,29.5031056 L43.8509317,29.689441 C43.8509317,30.0310559 44.0062112,30.2795031 44.4720497,30.2795031 L45.4658385,30.2795031 C46.7701863,30.2795031 47.5776398,30.8074534 47.5776398,32.2670807 L47.5776398,32.6397516 L47.5465839,32.6397516 Z" id="Path"></path>
                        <path d="M48.9130435,34.6273292 L48.9130435,27.6086957 L51.6149068,27.6086957 C53.4782609,27.6086957 54.0372671,28.0434783 54.0372671,29.5962733 L54.0372671,30.0931677 C54.0372671,31.4285714 53.3540373,31.9565217 51.7080745,31.9565217 L50.4968944,31.9565217 L50.4968944,34.6273292 L48.9130435,34.6273292 Z M52.4534161,29.5652174 C52.4534161,29.0372671 52.3291925,28.8819876 51.5838509,28.8819876 L50.5279503,28.8819876 L50.5279503,30.6521739 L51.5838509,30.6521739 C52.3291925,30.6521739 52.4534161,30.5279503 52.4534161,30.0310559 L52.4534161,29.5652174 Z" id="Shape"></path>
                        <polygon id="Path" points="55.2173913 34.6273292 55.2173913 27.6086957 60.0310559 27.6086957 59.8447205 28.9130435 56.8012422 28.9130435 56.8012422 30.310559 59.7826087 30.310559 59.5962733 31.6459627 56.8012422 31.6459627 56.8012422 33.2919255 60 33.2919255 60 34.6273292"></polygon>
                        <path d="M66.242236,34.2857143 C65.8074534,34.4099379 64.6583851,34.689441 63.6024845,34.689441 C61.863354,34.689441 61.1801242,34.1614907 61.1801242,32.484472 L61.1801242,29.8757764 C61.1801242,28.2298137 61.7391304,27.484472 63.6024845,27.484472 C64.378882,27.484472 65.310559,27.5776398 66.1490683,27.7329193 L65.8695652,28.9751553 C64.8447205,28.8198758 64.3478261,28.757764 63.8198758,28.757764 C62.8881988,28.757764 62.7950311,29.1614907 62.7950311,29.9689441 L62.7950311,32.4223602 C62.7950311,33.136646 62.9503106,33.3850932 63.7888199,33.3850932 C64.4409938,33.3850932 65.0931677,33.2919255 65.8385093,33.0434783 L66.242236,34.2857143 Z" id="Path"></path>
                        <rect id="Rectangle" x="67.484472" y="27.6086957" width="1.58385093" height="7.01863354"></rect>
                        <path d="M75.0931677,34.6273292 L74.689441,33.3540373 L72.3291925,33.3540373 L71.9254658,34.6273292 L70.1552795,34.6273292 L72.6086957,27.6086957 L74.4099379,27.6086957 L76.863354,34.6273292 L75.0931677,34.6273292 Z M73.4782609,29.1614907 L72.6086957,32.0807453 L74.378882,32.0807453 L73.4782609,29.1614907 Z" id="Shape"></path>
                        <polygon id="Path" points="77.826087 34.6273292 77.826087 27.6086957 79.4409938 27.6086957 79.4409938 33.2919255 82.6397516 33.2919255 82.6397516 34.6273292"></polygon>
                        <path d="M18.9130435,49.8757764 C8.47826087,49.8757764 8.52651283e-14,41.4596273 8.52651283e-14,31.1180124 C8.52651283e-14,26.5838509 1.64596273,22.2360248 4.62732919,18.8198758 C7.57763975,15.4347826 11.6459627,13.2298137 16.0869565,12.5776398 L16.1490683,12.5776398 L16.1490683,8.10559006 L16.1180124,8.10559006 C12.6397516,6.92546584 10.310559,3.69565217 10.2795031,0.0310559006 L15.5590062,0.0310559006 C15.5900621,1.86335404 17.1118012,3.32298137 18.9440994,3.32298137 C20.7763975,3.32298137 22.2981366,1.86335404 22.3291925,0.0310559006 L27.6086957,0.0310559006 C27.5776398,3.66459627 25.2484472,6.89440994 21.7701863,8.10559006 L21.7391304,8.10559006 L21.7391304,12.5776398 L21.8012422,12.5776398 C26.242236,13.2298137 30.310559,15.4658385 33.2608696,18.8198758 C36.242236,22.2360248 37.8881988,26.5838509 37.8881988,31.1180124 C37.8571429,41.4596273 29.3478261,49.8757764 18.9130435,49.8757764 M5.43478261,33.9130435 C6.77018634,40.2173913 12.4223602,44.7826087 18.9440994,44.7826087 C26.552795,44.7826087 32.7329193,38.6335404 32.7329193,31.0869565 C32.7329193,23.5403727 26.552795,17.3913043 18.9440994,17.3913043 C12.4534161,17.3913043 6.77018634,21.9565217 5.43478261,28.2608696 L5.40372671,28.3229814 L10.7453416,28.3229814 L10.7453416,28.2919255 C11.9254658,24.8136646 15.2173913,22.484472 18.8819876,22.4534161 L18.8819876,27.7018634 C17.0496894,27.7329193 15.5590062,29.2236025 15.5590062,31.0559006 C15.5590062,32.8881988 17.0496894,34.378882 18.8819876,34.4099379 L18.8819876,39.6583851 C15.1863354,39.6273292 11.9254658,37.2981366 10.7453416,33.8198758 L10.7453416,33.7888199 L5.40372671,33.7888199 L5.43478261,33.9130435 Z" id="Shape"></path>
                        <path d="M42.173913,49.2857143 L42.173913,46.7391304 C42.173913,44.1925466 42.6086957,43.447205 44.7826087,42.2981366 C45.3416149,41.9875776 46.8012422,41.242236 47.2981366,40.9627329 C47.6708075,40.7763975 48.0124224,40.4968944 48.0124224,39.9378882 L48.0124224,39.5652174 C48.0124224,38.8198758 47.4223602,38.6335404 46.6149068,38.6335404 C45.5279503,38.6335404 43.8198758,38.9130435 42.7950311,39.1304348 L41.9875776,36.863354 C43.5093168,36.5217391 45.2795031,36.242236 46.863354,36.242236 C49.4409938,36.242236 50.9006211,37.0496894 50.9006211,39.4099379 L50.9006211,40.0310559 C50.9006211,41.5217391 50.0931677,42.2981366 48.8509317,42.9813665 C48.2608696,43.2919255 46.5838509,44.1614907 45.9937888,44.5341615 C45.2484472,44.9689441 45.0621118,45.5900621 45.0621118,46.3664596 L45.0621118,46.8944099 L51.0248447,46.8944099 L51.0248447,49.2857143 L42.173913,49.2857143 L42.173913,49.2857143 Z" id="Path"></path>
                        <path d="M57.9192547,49.4409938 C54.378882,49.4409938 53.136646,48.0124224 53.136646,45 L53.136646,40.6832298 C53.136646,37.6397516 54.378882,36.242236 57.9192547,36.242236 L58.1987578,36.242236 C61.7391304,36.242236 63.0124224,37.6708075 63.0124224,40.6832298 L63.0124224,45 C63.0124224,48.0434783 61.7701863,49.4409938 58.1987578,49.4409938 L57.9192547,49.4409938 Z M60.0621118,40.6832298 C60.0621118,39.068323 59.7826087,38.5403727 58.2919255,38.5403727 L57.826087,38.5403727 C56.3354037,38.5403727 56.0559006,39.068323 56.0559006,40.6832298 L56.0559006,44.9689441 C56.0559006,46.5838509 56.3354037,47.1118012 57.826087,47.1118012 L58.2919255,47.1118012 C59.7826087,47.1118012 60.0621118,46.5838509 60.0621118,44.9689441 L60.0621118,40.6832298 Z" id="Shape"></path>
                        <polygon id="Path" points="68.0124224 49.2857143 68.0124224 39.4720497 65.6832298 40.9937888 64.378882 39.1925466 68.4161491 36.3664596 70.931677 36.3664596 70.931677 49.2857143"></polygon>
                        <polygon id="Path" points="74.4409938 49.2857143 79.2857143 38.7267081 73.2919255 38.7267081 73.2919255 36.3664596 82.515528 36.3664596 82.515528 38.2298137 77.6708075 49.2857143"></polygon>
                    </g>
                </g>
            </g>
        </g>
    </g>
</svg>