<?xml version="1.0" encoding="UTF-8"?>
<svg width="80px" height="50px" viewBox="0 0 80 50" version="1.1" xmlns="http://www.w3.org/2000/svg" xmlns:xlink="http://www.w3.org/1999/xlink">
    <!-- Generator: Sketch 60.1 (88133) - https://sketch.com -->
    <title>Grunderszene</title>
    <desc>Created with Sketch.</desc>
    <g id="Designs" stroke="none" stroke-width="1" fill="none" fill-rule="evenodd">
        <g id="Landing_Desktop" transform="translate(-168.000000, -805.000000)" fill-rule="nonzero">
            <g id="Hero" transform="translate(0.000000, 0.000000)">
                <g id="Logos" transform="translate(166.000000, 769.000000)">
                    <g id="Grunderszene" transform="translate(2.000000, 36.000000)">
                        <polygon id="Path-Copy" fill="#FFFFFF" points="69.4444444 0.703017833 59.3567251 49.7770919 52.7777778 49.7770919 62.8654971 0.703017833"></polygon>
                        <polygon id="Path-Copy-2" fill="#FFFFFF" points="79.6296296 0.703017833 69.3732194 49.7770919 62.962963 49.7770919 73.2193732 0.703017833"></polygon>
                        <polygon id="Path-Copy-3" fill="#FFFFFF" points="0 0.925925926 0 50 48.7242798 50 59.2592593 0.925925926"></polygon>
                        <g id="Group-13" transform="translate(11.111111, 15.517833)" fill="#131415">
                            <path d="M8.33333333,8.05555556 L8.33333333,12.2222222 L11.9444444,12.2222222 L11.9444444,15.8333333 C11.6666667,15.8333333 11.3888889,15.8333333 11.1111111,15.8333333 C10.8333333,15.8333333 10.2777778,15.8333333 10,15.8333333 C9.16666667,15.8333333 8.33333333,15.5555556 7.77777778,15.2777778 C7.22222222,15 6.66666667,14.4444444 6.11111111,14.1666667 C5.55555556,13.6111111 5.27777778,13.0555556 5.27777778,12.2222222 C5,11.3888889 5,10.5555556 5,9.72222222 C5,7.77777778 5.55555556,6.38888889 6.38888889,5.27777778 C7.22222222,4.16666667 8.61111111,3.61111111 10.5555556,3.61111111 C11.3888889,3.61111111 12.2222222,3.61111111 13.0555556,3.88888889 C13.8888889,4.16666667 14.4444444,4.44444444 15,4.72222222 L16.1111111,1.38888889 C15.8333333,1.38888889 15.8333333,1.11111111 15.2777778,1.11111111 C15,0.833333333 14.4444444,0.833333333 13.8888889,0.555555556 C13.3333333,0.277777778 12.7777778,0.277777778 11.9444444,0.277777778 C11.1111111,0.277777778 10.5555556,0 9.44444444,0 C8.05555556,0 6.94444444,0.277777778 5.83333333,0.555555556 C4.72222222,1.11111111 3.61111111,1.66666667 2.77777778,2.5 C1.94444444,3.33333333 1.38888889,4.44444444 0.833333333,5.55555556 C0.277777778,6.66666667 7.95807864e-13,8.05555556 7.95807864e-13,9.72222222 C7.95807864e-13,11.3888889 0.277777778,12.5 0.555555556,13.8888889 C1.11111111,15 1.66666667,16.1111111 2.5,16.9444444 C3.33333333,17.7777778 4.16666667,18.3333333 5.27777778,18.8888889 C6.38888889,19.4444444 7.77777778,19.4444444 9.16666667,19.4444444 C10.8333333,19.4444444 12.2222222,19.4444444 13.3333333,19.1666667 C14.4444444,18.8888889 15.2777778,18.6111111 15.8333333,18.6111111 L15.8333333,8.05555556 L8.33333333,8.05555556 Z" id="Path-Copy-5"></path>
                            <path d="M24.9074074,16.1111111 C25.462963,16.1111111 26.0185185,16.1111111 26.2962963,15.8333333 C26.5740741,15.8333333 27.1296296,15.5555556 27.1296296,15.5555556 C27.4074074,15.2777778 27.4074074,15.2777778 27.6851852,15 C27.6851852,14.7222222 27.6851852,14.4444444 27.6851852,14.1666667 C27.6851852,13.6111111 27.4074074,13.0555556 26.8518519,12.7777778 C26.2962963,12.5 25.1851852,11.9444444 23.7962963,11.3888889 C23.2407407,11.1111111 22.6851852,10.8333333 21.8518519,10.5555556 C21.2962963,10.2777778 20.7407407,10 20.1851852,9.44444444 C19.6296296,8.88888889 19.3518519,8.61111111 19.0740741,7.77777778 C18.7962963,7.22222222 18.5185185,6.38888889 18.5185185,5.55555556 C18.5185185,4.72222222 18.7962963,3.88888889 19.0740741,3.33333333 C19.3518519,2.77777778 19.9074074,1.94444444 20.462963,1.66666667 C21.0185185,1.38888889 21.8518519,0.833333333 22.6851852,0.555555556 C23.5185185,0.277777778 24.3518519,0.277777778 25.462963,0.277777778 C26.8518519,0.277777778 27.6851852,0.277777778 28.7962963,0.555555556 C29.6296296,0.833333333 30.462963,1.11111111 31.0185185,1.38888889 L29.9074074,4.72222222 C29.3518519,4.44444444 28.7962963,4.16666667 28.2407407,3.88888889 C27.6851852,3.61111111 26.8518519,3.61111111 26.0185185,3.61111111 C24.9074074,3.61111111 24.3518519,3.61111111 23.7962963,4.16666667 C23.2407407,4.44444444 23.2407407,5 23.2407407,5.55555556 C23.2407407,5.83333333 23.2407407,6.11111111 23.5185185,6.38888889 C23.7962963,6.66666667 23.7962963,6.94444444 24.0740741,6.94444444 C24.3518519,7.22222222 24.6296296,7.22222222 25.1851852,7.5 C25.462963,7.77777778 26.0185185,7.77777778 26.5740741,8.05555556 C27.4074074,8.33333333 28.5185185,8.88888889 29.0740741,9.16666667 C29.9074074,9.44444444 30.462963,10 30.7407407,10.2777778 C31.2962963,10.8333333 31.5740741,11.3888889 31.8518519,11.9444444 C32.1296296,12.5 32.1296296,13.3333333 32.1296296,14.1666667 C32.1296296,15.8333333 31.5740741,17.2222222 30.1851852,18.3333333 C29.0740741,19.1666667 27.1296296,19.7222222 24.6296296,19.7222222 C23.7962963,19.7222222 22.962963,19.7222222 22.4074074,19.4444444 C21.8518519,19.4444444 21.0185185,19.1666667 20.7407407,19.1666667 C20.1851852,18.8888889 19.9074074,18.8888889 19.3518519,18.6111111 C19.0740741,18.3333333 18.7962963,18.3333333 18.5185185,18.0555556 L19.6296296,14.7222222 C20.1851852,15 20.7407407,15.2777778 21.5740741,15.5555556 C22.6851852,16.1111111 23.7962963,16.1111111 24.9074074,16.1111111" id="Path-Copy-8"></path>
                        </g>
                    </g>
                </g>
            </g>
        </g>
    </g>
</svg>