<?xml version="1.0" encoding="UTF-8"?>
<svg width="73px" height="60px" viewBox="0 0 73 60" version="1.1" xmlns="http://www.w3.org/2000/svg" xmlns:xlink="http://www.w3.org/1999/xlink">
    <!-- Generator: Sketch 60.1 (88133) - https://sketch.com -->
    <title>Hamburg</title>
    <desc>Created with Sketch.</desc>
    <g id="Designs" stroke="none" stroke-width="1" fill="none" fill-rule="evenodd">
        <g id="Landing_Desktop" transform="translate(-1029.000000, -800.000000)" fill="#FFFFFF" fill-rule="nonzero">
            <g id="Hero" transform="translate(0.000000, 0.000000)">
                <g id="Logos" transform="translate(166.000000, 769.000000)">
                    <g id="Hamburg" transform="translate(863.150000, 31.000000)">
                        <path d="M40.4680851,-7.10542736e-15 L36.7340426,-7.10542736e-15 L32.0106383,-7.10542736e-15 L19.7553191,29.5851064 L28.5319149,29.5851064 L30.1276596,25.6595745 L41.2659574,23.0106383 L43.9148936,29.6170213 L52.6914894,29.6170213 L40.4680851,-7.10542736e-15 Z M40.5,20.4893617 L39.0638298,18.8297872 L37.6914894,18.5106383 L37.5638298,18.9574468 C37.5638298,18.9893617 37.5638298,18.9893617 37.5319149,19.0212766 L37.5319149,19.0212766 C37.5319149,19.0212766 37.5319149,19.0212766 37.5319149,19.0212766 C37.4042553,19.4042553 36.8617021,19.6595745 36.2234043,19.6595745 C35.5851064,19.6595745 35.0425532,19.3723404 34.9148936,18.9893617 L34.7553191,18.5106383 L33.3829787,18.8297872 L31.9468085,20.4893617 L31.212766,20.4893617 L32.6489362,16.8829787 L34.0531915,15.9893617 C33.9893617,15.7021277 33.9255319,15.5106383 33.9255319,15.5106383 C33.6382979,13.8829787 33.5425532,13.212766 34.0212766,10.4680851 C34.5,7.72340426 36.0319149,5.64893617 36.0638298,5.61702128 L36.0638298,5.61702128 C36.0957447,5.55319149 36.1595745,5.5212766 36.2234043,5.5212766 C36.287234,5.5212766 36.3510638,5.55319149 36.3829787,5.61702128 C36.3829787,5.61702128 36.3829787,5.61702128 36.3829787,5.61702128 C36.3829787,5.61702128 37.8829787,7.69148936 38.3617021,10.4361702 C38.8404255,13.1808511 38.7446809,14.0425532 38.5851064,15.2553191 C38.5851064,15.2553191 38.5851064,15.2553191 38.5851064,15.2553191 L38.393617,15.9574468 L39.7659574,16.8510638 L41.2021277,20.4574468 L40.5,20.4893617 Z" id="Shape"></path>
                        <polygon id="Path" points="-6.82121026e-13 51.287234 3.31914894 50.4893617 3.38297872 51.2234043 1.14893617 51.7659574 1.14893617 53.2659574 3.15957447 52.787234 3.15957447 53.4574468 1.14893617 53.9361702 1.14893617 56.2021277 -6.82121026e-13 56.4893617"></polygon>
                        <path d="M4.59574468,53.6170213 L4.59574468,50.2021277 L5.77659574,49.9148936 L5.77659574,53.3297872 C5.77659574,53.9680851 6.12765957,54.1914894 6.73404255,54.0319149 C7.30851064,53.9042553 7.65957447,53.4893617 7.65957447,52.8510638 L7.65957447,49.4361702 L8.61702128,49.212766 L8.61702128,52.6276596 C8.61702128,53.8404255 7.85106383,54.6702128 6.57446809,54.9574468 C5.29787234,55.2765957 4.59574468,54.8297872 4.59574468,53.6170213" id="Path"></path>
                        <polygon id="Path" points="11.4255319 49.2446809 9.89361702 49.5957447 9.95744681 48.893617 14.0106383 47.9042553 14.106383 48.606383 12.5744681 48.9574468 12.5744681 53.4574468 11.4255319 53.712766"></polygon>
                        <path d="M15.3510638,51.0319149 L15.3510638,47.5851064 L16.5319149,47.2978723 L16.5319149,50.712766 C16.5319149,51.3510638 16.8829787,51.5744681 17.4893617,51.4148936 C18.0638298,51.287234 18.4148936,50.8723404 18.4148936,50.2340426 L18.4148936,46.8191489 L19.3723404,46.5957447 L19.3723404,50.0106383 C19.3723404,51.2234043 18.606383,52.0531915 17.3297872,52.3404255 C16.0531915,52.6914894 15.3510638,52.212766 15.3510638,51.0319149" id="Path"></path>
                        <path d="M23.8085106,50.7446809 L22.5957447,48.7659574 L21.9893617,48.9255319 L21.9893617,51.1914894 L20.8723404,51.4787234 L20.8723404,46.3085106 L23.2659574,45.7340426 C24.2234043,45.5106383 24.8297872,45.8297872 24.8297872,46.7553191 C24.8297872,47.5212766 24.3510638,48.1276596 23.6489362,48.4468085 L24.9893617,50.4893617 L23.8085106,50.7446809 Z M21.9893617,48.2234043 L22.9468085,48 C23.393617,47.9042553 23.7446809,47.5212766 23.7446809,47.0106383 C23.7446809,46.5 23.4574468,46.3085106 22.9468085,46.4361702 L21.9893617,46.6595745 L21.9893617,48.2234043 Z" id="Shape"></path>
                        <polygon id="Path" points="26.2340426 44.9680851 29.6170213 44.1382979 29.712766 44.8404255 27.3829787 45.4148936 27.3829787 46.8829787 29.4255319 46.4042553 29.4255319 47.0744681 27.3829787 47.5531915 27.3829787 49.1489362 29.7446809 48.5744681 29.6489362 49.3085106 26.2340426 50.1382979"></polygon>
                        <polygon id="Path" points="33.5744681 43.1808511 34.7234043 42.893617 34.7234043 45.1276596 36.6382979 44.6489362 36.6382979 42.4468085 37.787234 42.1595745 37.787234 47.3617021 36.6382979 47.6170213 36.6382979 45.3191489 34.7234043 45.7659574 34.7234043 48.0957447 33.5744681 48.3510638"></polygon>
                        <path d="M42.2553191,44.8404255 L40.5638298,45.2553191 L40.1489362,46.787234 L39.0638298,47.0425532 L40.787234,41.4574468 L42.1276596,41.1382979 L43.8829787,45.893617 L42.7021277,46.1808511 L42.2553191,44.8404255 Z M42.0638298,44.2021277 L41.393617,42.1914894 L40.7553191,44.5212766 L42.0638298,44.2021277 Z" id="Shape"></path>
                        <polygon id="Path" points="45.1276596 40.4042553 46.6276596 40.0212766 47.7446809 43.5319149 48.8297872 39.5106383 50.393617 39.1276596 50.393617 44.2978723 49.3085106 44.5531915 49.3085106 40.5319149 48.0957447 44.8723404 47.1382979 45.0957447 45.9574468 41.3297872 45.9574468 45.3829787 45.1276596 45.5744681"></polygon>
                        <path d="M51.893617,38.7446809 L54.1595745,38.2021277 C55.0212766,38.0106383 55.6595745,38.2340426 55.6595745,39.1276596 C55.6595745,39.7978723 55.1808511,40.3085106 54.8297872,40.5 C55.2446809,40.4680851 55.8510638,40.6276596 55.8510638,41.5212766 C55.8510638,42.4787234 55.1170213,43.1489362 54.2234043,43.3723404 L51.893617,43.9468085 L51.893617,38.7446809 L51.893617,38.7446809 Z M53.8404255,40.5319149 C54.3191489,40.4042553 54.606383,40.0531915 54.606383,39.5744681 C54.606383,39.0638298 54.3510638,38.8723404 53.8085106,39 L53.0106383,39.1914894 L53.0106383,40.7234043 L53.8404255,40.5319149 Z M53.9042553,42.7659574 C54.4148936,42.6382979 54.7340426,42.287234 54.7340426,41.7446809 C54.7340426,41.1702128 54.4148936,41.0106383 53.8723404,41.1382979 L52.9787234,41.3617021 L52.9787234,43.0212766 L53.9042553,42.7659574 Z" id="Shape"></path>
                        <path d="M57.2234043,40.9148936 L57.2234043,37.4680851 L58.4042553,37.1808511 L58.4042553,40.5957447 C58.4042553,41.2340426 58.7553191,41.4574468 59.3617021,41.2978723 C59.9361702,41.1702128 60.287234,40.7553191 60.287234,40.1170213 L60.287234,36.7021277 L61.2446809,36.4787234 L61.2446809,39.893617 C61.2446809,41.106383 60.4787234,41.9361702 59.2021277,42.2234043 C57.9574468,42.5425532 57.2234043,42.0957447 57.2234043,40.9148936" id="Path"></path>
                        <path d="M65.712766,40.5957447 L64.5,38.6170213 L63.893617,38.7765957 L63.893617,41.0425532 L62.7765957,41.3297872 L62.7765957,36.1595745 L65.1702128,35.5851064 C66.1276596,35.3617021 66.7340426,35.6808511 66.7340426,36.606383 C66.7340426,37.3723404 66.2553191,37.9787234 65.5531915,38.2978723 L66.893617,40.3404255 L65.712766,40.5957447 Z M63.893617,38.106383 L64.8510638,37.8829787 C65.2978723,37.787234 65.6489362,37.4042553 65.6489362,36.893617 C65.6489362,36.3829787 65.3617021,36.1914894 64.8510638,36.3191489 L63.893617,36.5425532 L63.893617,38.106383 Z" id="Shape"></path>
                        <path d="M67.9468085,37.4680851 C67.9468085,35.5851064 69.0319149,34.5319149 70.4042553,34.212766 C71.6170213,33.9255319 72.1595745,34.2446809 72.1595745,34.2446809 L72.287234,35.2659574 C72.287234,35.2659574 71.6808511,34.7553191 70.6595745,35.0106383 C69.7340426,35.2340426 69.1276596,35.8723404 69.1276596,37.212766 C69.1276596,38.5531915 69.7978723,38.9042553 70.6595745,38.6808511 C71.0425532,38.5851064 71.2978723,38.4574468 71.2978723,38.4574468 L71.2978723,37.3723404 L70.4042553,37.5957447 L70.4042553,36.9574468 L72.3191489,36.4787234 L72.3191489,38.5531915 C72.3191489,38.5531915 71.6170213,39.2553191 70.3085106,39.5744681 C69,39.8617021 67.9468085,39.3510638 67.9468085,37.4680851" id="Path"></path>
                        <path d="M24.9893617,57.7021277 L23.2978723,58.1170213 L22.8829787,59.6489362 L21.7978723,59.9042553 L23.5212766,54.3191489 L24.8617021,54 L26.6170213,58.7553191 L25.4361702,59.0425532 L24.9893617,57.7021277 Z M24.7978723,57.0957447 L24.1276596,55.0851064 L23.4893617,57.4148936 L24.7978723,57.0957447 Z" id="Shape"></path>
                        <polygon id="Path" points="27.2553191 53.4255319 28.5 53.106383 29.2340426 56.9042553 30.2234043 52.6914894 31.1808511 52.4680851 32.1382979 56.2021277 32.8723404 52.0531915 33.9255319 51.7978723 32.712766 57.287234 31.4680851 57.5744681 30.5744681 54.2553191 29.6808511 58.0212766 28.4042553 58.3085106"></polygon>
                        <path d="M37.787234,54.606383 L36.0957447,55.0212766 L35.6808511,56.5531915 L34.5957447,56.8085106 L36.3191489,51.2234043 L37.6595745,50.9042553 L39.4148936,55.6595745 L38.2340426,55.9468085 L37.787234,54.606383 Z M37.5957447,54 L36.9255319,51.9893617 L36.287234,54.3191489 L37.5957447,54 Z" id="Shape"></path>
                        <path d="M43.5957447,54.6382979 L42.3829787,52.6595745 L41.7765957,52.8191489 L41.7765957,55.0851064 L40.6595745,55.3723404 L40.6595745,50.2021277 L43.0531915,49.6276596 C44.0106383,49.4042553 44.6170213,49.7234043 44.6170213,50.6489362 C44.6170213,51.4148936 44.1382979,52.0212766 43.4361702,52.3404255 L44.7765957,54.3829787 L43.5957447,54.6382979 Z M41.7765957,52.1489362 L42.7340426,51.9255319 C43.1808511,51.8297872 43.5319149,51.4468085 43.5319149,50.9361702 C43.5319149,50.4255319 43.2446809,50.2340426 42.7340426,50.3617021 L41.7765957,50.5851064 L41.7765957,52.1489362 Z" id="Shape"></path>
                        <path d="M46.0212766,48.8617021 L47.9680851,48.3829787 C49.4361702,48.0319149 50.3617021,48.606383 50.3617021,50.3617021 C50.3617021,52.1489362 49.3404255,53.2340426 47.9361702,53.5851064 L46.0531915,54.0319149 L46.0531915,48.8617021 L46.0212766,48.8617021 Z M47.8085106,52.9468085 C48.6702128,52.7553191 49.1808511,52.0531915 49.1808511,50.712766 C49.1808511,49.3404255 48.6702128,48.9574468 47.8085106,49.1489362 L47.2021277,49.3085106 L47.2021277,53.0744681 L47.8085106,52.9468085 Z" id="Shape"></path>
                    </g>
                </g>
            </g>
        </g>
    </g>
</svg>