<?xml version="1.0" encoding="UTF-8"?>
<svg width="96px" height="45px" viewBox="0 0 96 45" version="1.1" xmlns="http://www.w3.org/2000/svg" xmlns:xlink="http://www.w3.org/1999/xlink">
    <!-- Generator: Sketch 60.1 (88133) - https://sketch.com -->
    <title>InnovationAward</title>
    <desc>Created with Sketch.</desc>
    <g id="Designs" stroke="none" stroke-width="1" fill="none" fill-rule="evenodd">
        <g id="Landing_Desktop" transform="translate(-512.000000, -808.000000)" fill="#FFFFFF" fill-rule="nonzero">
            <g id="Hero" transform="translate(0.000000, 0.000000)">
                <g id="Logos" transform="translate(166.000000, 769.000000)">
                    <g id="InnovationAward" transform="translate(346.660000, 39.000000)">
                        <path d="M26.8686131,44.2116788 C21.8430657,44.2116788 17.0145985,41.9452555 12.8430657,37.6094891 C8.63868613,33.2408759 5.09124088,26.7043796 2.66058394,18.7883212 L10.7737226,14.9124088 C13.1715328,23.5182482 16.6532847,30.580292 20.8248175,35.3430657 C24.7007299,39.7773723 28.9708029,42.1094891 33.2080292,42.1094891 C34.2262774,42.1094891 35.2116788,41.9781022 36.1970803,41.6824818 C33.1094891,43.3576642 29.9562044,44.2116788 26.8686131,44.2116788" id="Path"></path>
                        <path d="M38.5291971,40.2372263 C40.040146,38.5948905 40.5656934,36.6569343 40.1058394,34.3905109 C38.5948905,26.9343066 26.5729927,17.9671533 12.0875912,13.5 L15.5036496,4.56569343 C22.959854,6.96350365 29.9233577,10.7408759 35.1459854,15.2080292 C40.4014599,19.7080292 43.5875912,24.6350365 44.1459854,29.1021898 C44.6715328,33.5036496 42.7335766,37.3138686 38.5291971,40.2372263" id="Path"></path>
                        <path d="M44.5729927,33.8978102 C45.5912409,31.4014599 45.6569343,28.6423358 44.7372263,25.6861314 C42.6350365,18.7554745 35.1788321,11.1350365 25.7846715,6.24087591 L29.7591241,1.42108547e-14 C33.9635036,2.23357664 37.7408759,5.22262774 40.6970803,8.60583942 C43.8175182,12.1532847 45.9525547,16.0948905 46.8394161,19.9379562 C47.4635036,22.5 47.5291971,25.0620438 47.0693431,27.5255474 C46.6751825,29.7262774 45.8540146,31.8613139 44.5729927,33.8978102" id="Path"></path>
                        <path d="M48.2189781,25.5875912 C49.1058394,18.5912409 45.5912409,10.149635 38.9890511,3.90875912 L41.1569343,1.18248175 C44.2445255,4.30291971 46.6423358,8.5729927 47.8905109,13.270073 C49.040146,17.5729927 49.1386861,21.7773723 48.2189781,25.5875912" id="Path"></path>
                        <path d="M23.7481752,44.9014599 C19.2153285,44.9014599 14.5510949,43.4562044 10.3138686,40.729927 C6.01094891,37.9379562 2.43065693,34.0291971 -7.38964445e-13,29.3978102 L3.51459854,27.5255474 C4.99270073,30.5145985 12.2189781,43.7846715 24.3394161,44.8686131 C24.1751825,44.9014599 23.9781022,44.9014599 23.7481752,44.9014599" id="Path"></path>
                        <path d="M53.7043796,4.72992701 C53.7043796,2.85766423 54.8540146,1.7080292 57.0875912,1.7080292 C58.3029197,1.7080292 59.1240876,2.03649635 59.3868613,2.26642336 C59.3868613,2.7919708 59.1569343,3.28467153 58.7956204,3.61313869 C58.3357664,3.15328467 57.6459854,2.92335766 57.0547445,2.92335766 C56.2335766,2.92335766 55.4124088,3.38321168 55.4124088,4.66423358 C55.4124088,5.7810219 56.0364964,6.4379562 57.0875912,6.4379562 C57.4817518,6.4379562 57.9087591,6.33941606 58.040146,6.27372263 L58.040146,5.55109489 L57.120438,5.55109489 C57.0218978,5.22262774 57.0218978,4.89416058 57.120438,4.56569343 L59.3868613,4.56569343 L59.3868613,7.16058394 L59.2554745,7.2919708 C58.5985401,7.55474453 57.7773723,7.7189781 56.9890511,7.7189781 C55.0510949,7.75182482 53.7043796,6.79927007 53.7043796,4.72992701" id="Path"></path>
                        <path d="M61.0291971,7.48905109 L61.0291971,3.12043796 L60.2080292,3.08759124 C60.1094891,2.66058394 60.1094891,2.23357664 60.2080292,1.83941606 L65.3321168,1.83941606 C65.4306569,2.26642336 65.4306569,2.69343066 65.3321168,3.12043796 L62.6715328,3.12043796 L62.6715328,4.17153285 L65.0693431,4.17153285 C65.1678832,4.59854015 65.1678832,5.02554745 65.0693431,5.45255474 L62.6715328,5.45255474 L62.6715328,6.37226277 L65.4635036,6.37226277 C65.5620438,6.79927007 65.5620438,7.22627737 65.4635036,7.65328467 L61.1605839,7.65328467 L61.0291971,7.48905109 Z" id="Path"></path>
                        <path d="M69.7992701,4.33576642 C70.3248175,4.33576642 70.5547445,4.10583942 70.5547445,3.74452555 C70.5547445,3.28467153 70.2591241,3.12043796 69.7992701,3.12043796 L68.7153285,3.12043796 L68.7153285,4.33576642 L69.7992701,4.33576642 L69.7992701,4.33576642 Z M69.3394161,5.61678832 L68.6824818,5.61678832 L68.6824818,7.62043796 C68.2226277,7.68613139 67.6313869,7.7189781 67.1715328,7.62043796 L67.040146,7.48905109 L67.040146,3.12043796 L66.2189781,3.08759124 C66.1532847,2.66058394 66.120438,2.23357664 66.2189781,1.83941606 L70.0291971,1.83941606 C71.4087591,1.83941606 72.1970803,2.62773723 72.1970803,3.77737226 C72.1970803,4.59854015 71.7372263,5.25547445 70.850365,5.55109489 C71.1131387,6.07664234 71.4744526,6.40510949 71.8686131,6.40510949 C72.1642336,6.40510949 72.2956204,6.37226277 72.5255474,6.30656934 C72.6240876,6.73357664 72.6240876,7.16058394 72.5255474,7.62043796 C72.2627737,7.65328467 72.0656934,7.68613139 71.770073,7.68613139 C70.1934307,7.65328467 69.6350365,6.53649635 69.3394161,5.61678832" id="Shape"></path>
                        <path d="M73.9051095,7.48905109 L73.9051095,3.12043796 L73.0839416,3.08759124 C72.9854015,2.66058394 72.9525547,2.26642336 73.0839416,1.80656934 C73.9051095,1.7080292 74.7591241,1.7080292 75.580292,1.80656934 L76.4343066,3.05474453 L77.2883212,4.33576642 L77.3211679,4.33576642 L78.0766423,3.05474453 L78.8649635,1.80656934 C79.4562044,1.7080292 80.0474453,1.7080292 80.6386861,1.80656934 L80.6386861,7.58759124 C80.080292,7.68613139 79.5218978,7.68613139 78.9635036,7.58759124 L78.9635036,5.94525547 L79.0620438,4.20437956 L78.9963504,4.20437956 L77.3868613,6.70072993 L77.0912409,6.70072993 L75.4817518,4.27007299 L75.4160584,4.27007299 L75.4817518,5.87956204 L75.4817518,7.65328467 C75.0218978,7.7189781 74.4963504,7.7189781 74.0364964,7.65328467 L73.9051095,7.48905109 Z" id="Path"></path>
                        <path d="M85.3029197,5.18978102 L84.6131387,3.12043796 L84.5474453,3.12043796 L83.8576642,5.18978102 L85.3029197,5.18978102 Z M81.5255474,7.48905109 L83.6277372,1.80656934 L85.5985401,1.80656934 L85.7956204,1.97080292 L87.8321168,7.52189781 L87.7664234,7.65328467 C87.2080292,7.7189781 86.649635,7.7189781 86.0912409,7.65328467 L85.6970803,6.50364964 L83.3978102,6.50364964 L82.9708029,7.65328467 C82.4781022,7.7189781 82.1167883,7.7189781 81.5912409,7.65328467 L81.5255474,7.48905109 Z" id="Shape"></path>
                        <path d="M88.8175182,7.48905109 L88.8175182,3.12043796 L87.9963504,3.08759124 C87.8978102,2.66058394 87.8978102,2.23357664 87.9963504,1.80656934 C88.850365,1.7080292 89.6715328,1.7080292 90.5255474,1.80656934 L92.6605839,5.18978102 L92.7262774,5.18978102 L92.6277372,3.74452555 L92.6277372,1.80656934 C93.0875912,1.74087591 93.6131387,1.74087591 94.1058394,1.80656934 L94.2372263,1.9379562 L94.1715328,2.98905109 L94.1715328,7.58759124 C93.6131387,7.68613139 93.0547445,7.68613139 92.4635036,7.58759124 L90.3284672,4.10583942 L90.2627737,4.10583942 L90.3284672,5.58394161 L90.3284672,7.58759124 C89.8686131,7.65328467 89.4087591,7.65328467 88.9160584,7.58759124 L88.8175182,7.48905109 Z" id="Path"></path>
                        <path d="M55.379562,18.7883212 L55.379562,11.2007299 L53.9343066,11.1350365 C53.8029197,10.379562 53.8029197,9.65693431 53.9343066,8.93430657 C55.3138686,8.83576642 56.5948905,8.83576642 58.0072993,8.93430657 L58.2372263,9.16423358 L58.2372263,19.0182482 C57.4160584,19.1167883 56.4635036,19.149635 55.5766423,19.0182482 L55.379562,18.7883212 Z" id="Path"></path>
                        <path d="M60.9635036,18.7883212 L60.9635036,11.2007299 L59.5182482,11.1350365 C59.3868613,10.379562 59.3868613,9.65693431 59.5182482,8.93430657 C60.9963504,8.80291971 62.4416058,8.80291971 63.919708,8.93430657 L67.6313869,14.8138686 L67.729927,14.8138686 L67.5656934,12.2846715 L67.5656934,8.93430657 C68.3868613,8.83576642 69.3065693,8.83576642 70.1277372,8.93430657 L70.3576642,9.16423358 L70.2591241,11.0036496 L70.2591241,19.0182482 C69.2737226,19.149635 68.2883212,19.149635 67.3029197,19.0182482 L63.6240876,12.9416058 L63.5255474,12.9416058 L63.6569343,15.5364964 L63.6569343,19.0182482 C62.8357664,19.1167883 62.0474453,19.149635 61.2262774,19.0182482 L60.9635036,18.7883212 Z" id="Path"></path>
                        <path d="M73.0182482,18.7883212 L73.0182482,11.2007299 L71.5729927,11.1350365 C71.4416058,10.379562 71.4416058,9.65693431 71.5729927,8.93430657 C73.0510949,8.80291971 74.4963504,8.80291971 75.9744526,8.93430657 L79.6861314,14.8138686 L79.7846715,14.8138686 L79.620438,12.2846715 L79.620438,8.93430657 C80.4416058,8.83576642 81.3613139,8.83576642 82.1824818,8.93430657 L82.4124088,9.16423358 L82.3138686,11.0036496 L82.3138686,19.0182482 C81.3284672,19.149635 80.3430657,19.149635 79.3576642,19.0182482 L75.6459854,12.9416058 L75.5474453,12.9416058 L75.6459854,15.5364964 L75.6459854,19.0182482 C74.8248175,19.1167883 74.0364964,19.149635 73.2153285,19.0182482 L73.0182482,18.7883212 Z" id="Path"></path>
                        <path d="M91.7408759,14.0255474 C91.7408759,12.0875912 90.8868613,11.0364964 89.2445255,11.0364964 C87.6350365,11.0364964 86.8138686,12.0875912 86.8138686,14.0255474 C86.8138686,15.9635036 87.6350365,16.9817518 89.2445255,16.9817518 C90.919708,16.9817518 91.7408759,15.9635036 91.7408759,14.0255474 M83.7919708,13.9927007 C83.7919708,10.9708029 85.6970803,8.77007299 89.2773723,8.77007299 C92.8576642,8.77007299 94.7956204,10.9708029 94.7956204,13.9927007 C94.7956204,17.0474453 92.8576642,19.2153285 89.2773723,19.2153285 C85.6970803,19.2153285 83.7919708,17.0474453 83.7919708,13.9927007" id="Shape"></path>
                        <path d="M56.7262774,26.9343066 L54.7883212,21.8430657 L53.8686131,21.810219 C53.770073,21.3175182 53.770073,20.8248175 53.8686131,20.3321168 C54.5583942,20.2335766 55.6094891,20.2335766 56.2992701,20.3321168 L57.3832117,23.3540146 L57.9087591,24.9635036 L58.0072993,24.9635036 L58.5,23.3540146 L59.5839416,20.3321168 C60.1423358,20.2335766 60.7992701,20.2664234 61.3576642,20.3321168 L61.4890511,20.4963504 L58.959854,27.0985401 C58.3357664,27.1970803 57.4817518,27.1642336 56.8576642,27.0985401 L56.7262774,26.9343066 Z" id="Path"></path>
                        <path d="M65.4635036,24.2408759 L64.6423358,21.8430657 L64.5766423,21.8430657 L63.7883212,24.2408759 L65.4635036,24.2408759 Z M61.0291971,26.9343066 L63.4927007,20.2992701 L65.7919708,20.2992701 L66.0218978,20.4963504 L68.419708,26.9671533 L68.3540146,27.0985401 C67.729927,27.1970803 67.040146,27.1970803 66.4160584,27.0985401 L65.9890511,25.7518248 L63.2956204,25.7518248 L62.8029197,27.0985401 C62.2116788,27.1970803 61.7846715,27.1642336 61.2262774,27.0985401 L61.0291971,26.9343066 Z" id="Shape"></path>
                        <path d="M70.0620438,26.9343066 L70.0620438,21.810219 L68.0255474,21.810219 C67.9270073,21.3175182 67.9270073,20.8248175 68.0255474,20.3321168 L74.0364964,20.3321168 C74.1678832,20.8248175 74.1678832,21.3175182 74.0364964,21.810219 L71.9671533,21.810219 L71.9671533,27.0656934 C71.4416058,27.1313869 70.7518248,27.1642336 70.1934307,27.0656934 L70.0620438,26.9343066 Z" id="Path"></path>
                        <path d="M75.8430657,26.9343066 L75.8430657,21.8430657 L74.8905109,21.810219 C74.7919708,21.3175182 74.7919708,20.8248175 74.8905109,20.3321168 C75.810219,20.2664234 76.6970803,20.2664234 77.6167883,20.3321168 L77.7481752,20.4635036 L77.7481752,27.0656934 C77.2226277,27.1313869 76.5656934,27.1642336 75.9744526,27.0656934 L75.8430657,26.9343066 Z" id="Path"></path>
                        <path d="M84.350365,23.7153285 C84.350365,22.4014599 83.7919708,21.7116788 82.6751825,21.7116788 C81.5912409,21.7116788 81.0328467,22.4343066 81.0328467,23.7153285 C81.0328467,25.0291971 81.5912409,25.6861314 82.6751825,25.6861314 C83.7919708,25.6861314 84.350365,25.0291971 84.350365,23.7153285 M79.0291971,23.7153285 C79.0291971,21.6788321 80.310219,20.2007299 82.7080292,20.2007299 C85.1058394,20.2007299 86.419708,21.6788321 86.419708,23.7153285 C86.419708,25.7518248 85.1058394,27.229927 82.7080292,27.229927 C80.310219,27.229927 79.0291971,25.7518248 79.0291971,23.7153285" id="Shape"></path>
                        <path d="M87.9306569,26.9343066 L87.9306569,21.8430657 L86.9781022,21.810219 C86.879562,21.3175182 86.879562,20.8248175 86.9781022,20.3321168 C87.9635036,20.2335766 88.9489051,20.2335766 89.9343066,20.3321168 L92.4306569,24.2737226 L92.4963504,24.2737226 L92.3978102,22.5656934 L92.3978102,20.3321168 C92.9233577,20.2664234 93.5474453,20.2664234 94.1386861,20.3321168 L94.3029197,20.4963504 L94.2372263,21.7116788 L94.2372263,27.0985401 C93.580292,27.1970803 92.9233577,27.1970803 92.2664234,27.0985401 L89.8029197,23.0255474 L89.7372263,23.0255474 L89.8029197,24.7664234 L89.8029197,27.0985401 C89.2445255,27.1642336 88.7189781,27.1970803 88.1605839,27.0985401 L87.9306569,26.9343066 Z" id="Path"></path>
                        <path d="M57.0875912,31.1715328 L56.4963504,29.4635036 L56.4635036,29.4635036 L55.9051095,31.1715328 L57.0875912,31.1715328 Z M53.9343066,33.0766423 L55.6751825,28.3467153 L57.3175182,28.3467153 L57.4817518,28.4781022 L59.189781,33.0766423 L59.1569343,33.1751825 C58.6970803,33.2408759 58.2372263,33.2408759 57.7773723,33.1751825 L57.4489051,32.189781 L55.5109489,32.189781 L55.1824818,33.1751825 C54.7554745,33.2408759 54.459854,33.2408759 54.0328467,33.1751825 L53.9343066,33.0766423 Z" id="Shape"></path>
                        <path d="M60.6350365,33.0766423 L59.649635,29.4635036 L58.959854,29.4306569 C58.8941606,29.0693431 58.8941606,28.7408759 58.959854,28.379562 C59.419708,28.3138686 60.3722628,28.3138686 60.8321168,28.379562 L61.3905109,30.5474453 C61.4890511,30.9744526 61.5875912,31.4343066 61.6532847,31.8613139 L61.7189781,31.8613139 C61.7846715,31.4343066 61.850365,30.9744526 61.9817518,30.5145985 L62.4744526,28.379562 C62.9671533,28.3138686 63.459854,28.3138686 63.9525547,28.379562 L64.4781022,30.5145985 C64.5766423,30.9416058 64.6751825,31.4014599 64.7737226,31.8613139 L64.8394161,31.8613139 C64.9379562,31.4343066 64.9708029,30.9744526 65.1021898,30.5474453 L65.6277372,28.379562 C66.0875912,28.3138686 66.3832117,28.3138686 66.8430657,28.379562 L66.9416058,28.4781022 L65.6934307,33.1751825 C65.0693431,33.2408759 64.4452555,33.2408759 63.8540146,33.1751825 L63.4927007,31.6642336 C63.3941606,31.2043796 63.2956204,30.6788321 63.1970803,30.2189781 L63.1642336,30.2189781 C63.0656934,30.6459854 63,31.2043796 62.9014599,31.6642336 L62.540146,33.1751825 C61.9817518,33.2408759 61.3576642,33.2080292 60.8321168,33.1751825 L60.6350365,33.0766423 Z" id="Path"></path>
                        <path d="M69.9963504,31.1715328 L69.4051095,29.4635036 L69.3722628,29.4635036 L68.8138686,31.1715328 L69.9963504,31.1715328 Z M66.8430657,33.0766423 L68.5839416,28.3467153 L70.2262774,28.3467153 L70.3905109,28.4781022 L72.0985401,33.0766423 L72.0656934,33.1751825 C71.6058394,33.2408759 71.1459854,33.2408759 70.6861314,33.1751825 L70.3576642,32.189781 L68.4525547,32.189781 L68.1240876,33.1751825 C67.6970803,33.2408759 67.4014599,33.2408759 66.9744526,33.1751825 L66.8430657,33.0766423 Z" id="Shape"></path>
                        <path d="M75.1861314,30.4489051 C75.6131387,30.4489051 75.810219,30.2518248 75.810219,29.9562044 C75.810219,29.5948905 75.580292,29.4306569 75.1861314,29.4306569 L74.2664234,29.4306569 L74.2664234,30.4489051 L75.1861314,30.4489051 Z M74.8248175,31.5328467 L74.2664234,31.5328467 L74.2664234,33.2080292 C73.8722628,33.2408759 73.4124088,33.2737226 72.9854015,33.2080292 L72.8868613,33.1094891 L72.8868613,29.4963504 L72.1970803,29.4635036 C72.1313869,29.1021898 72.1313869,28.7737226 72.1970803,28.4124088 L75.350365,28.4124088 C76.5,28.4124088 77.1569343,29.0693431 77.1569343,30.0218978 C77.1569343,30.7116788 76.7627737,31.2372263 76.040146,31.5 C76.270073,31.959854 76.5656934,32.2226277 76.8941606,32.2226277 C77.1569343,32.2226277 77.2554745,32.189781 77.4525547,32.1240876 C77.5182482,32.4854015 77.5182482,32.8467153 77.4525547,33.2080292 C77.2554745,33.2408759 77.0583942,33.2737226 76.8284672,33.2737226 C75.5145985,33.2408759 75.0547445,32.2883212 74.8248175,31.5328467" id="Shape"></path>
                        <path d="M80.4087591,32.1240876 C80.8029197,32.1240876 81.1313869,32.0255474 81.3284672,31.7956204 C81.5255474,31.5656934 81.6240876,31.2372263 81.6240876,30.7445255 C81.6240876,30.2189781 81.4927007,29.8905109 81.2627737,29.6934307 C81.0656934,29.4963504 80.7372263,29.4306569 80.4087591,29.4306569 L79.9160584,29.4306569 L79.9160584,32.1240876 L80.4087591,32.1240876 Z M78.5364964,33.0766423 L78.5364964,29.4306569 L77.8467153,29.3978102 C77.7810219,29.0364964 77.7810219,28.7080292 77.8467153,28.3467153 L80.7372263,28.3467153 C81.4270073,28.3467153 81.7554745,28.5437956 81.919708,28.6423358 C82.7080292,29.1021898 83.0364964,29.8905109 83.0364964,30.7445255 C83.0364964,31.5656934 82.7080292,32.4525547 81.919708,32.879562 C81.7226277,33.0109489 81.3284672,33.1751825 80.7372263,33.1751825 L78.6350365,33.1751825 L78.5364964,33.0766423 Z" id="Shape"></path>
                        <path d="M85.7627737,27.919708 C85.5656934,27.9854015 85.4343066,28.0839416 85.3029197,28.1824818 C85.2043796,28.2810219 85.1715328,28.379562 85.1386861,28.5437956 C85.1715328,28.5109489 85.2372263,28.4781022 85.3357664,28.4781022 C85.6642336,28.4781022 85.8613139,28.6751825 85.8613139,29.0364964 C85.8613139,29.3649635 85.6313869,29.6277372 85.2043796,29.6277372 C84.7773723,29.6277372 84.4817518,29.3321168 84.4817518,28.8065693 C84.4817518,28.149635 84.9744526,27.7554745 85.4671533,27.5255474 C85.6642336,27.5912409 85.7627737,27.7226277 85.7627737,27.919708" id="Path"></path>
                        <path d="M86.2554745,33.2080292 C86.189781,32.879562 86.189781,32.5510949 86.2554745,32.2226277 L87.4379562,32.2226277 L87.4379562,29.7919708 C87.1423358,29.8576642 86.8138686,29.8905109 86.3540146,29.8905109 C86.2883212,29.5291971 86.2883212,29.2007299 86.3540146,28.8394161 C87.3065693,28.8394161 87.5036496,28.8065693 87.7007299,28.3467153 C88.0620438,28.2810219 88.4233577,28.2810219 88.7846715,28.3467153 L88.7846715,32.2226277 L89.9014599,32.2226277 C89.9671533,32.5510949 89.9671533,32.879562 89.9014599,33.2080292 L86.2554745,33.2080292 Z" id="Path"></path>
                        <path d="M92.9890511,29.7591241 C92.9890511,29.4306569 92.7919708,29.2335766 92.4306569,29.2335766 C92.0693431,29.2335766 91.8722628,29.4306569 91.8722628,29.7262774 C91.8722628,30.0875912 92.1350365,30.2846715 92.5291971,30.4160584 C92.8248175,30.2846715 92.9890511,30.0547445 92.9890511,29.7591241 M93.0875912,31.729927 C93.0875912,31.3686131 92.7591241,31.2043796 92.3321168,31.040146 C92.0036496,31.2043796 91.8065693,31.4014599 91.8065693,31.6970803 C91.8065693,32.189781 92.2335766,32.2554745 92.4635036,32.2554745 C92.6605839,32.2883212 93.0875912,32.189781 93.0875912,31.729927 M90.4270073,31.8941606 C90.4270073,31.2372263 90.8211679,30.8759124 91.3138686,30.6459854 C90.919708,30.4160584 90.5912409,30.120438 90.5912409,29.5620438 C90.5912409,28.7408759 91.3467153,28.2481752 92.4306569,28.2481752 C93.4817518,28.2481752 94.270073,28.7080292 94.270073,29.5948905 C94.270073,30.120438 93.9744526,30.4817518 93.5474453,30.7445255 C94.040146,30.9416058 94.4343066,31.270073 94.4343066,31.959854 C94.4343066,32.9124088 93.580292,33.2737226 92.4306569,33.2737226 C91.3138686,33.3065693 90.4270073,32.9452555 90.4270073,31.8941606" id="Shape"></path>
                        <path d="M53.7372263,39.3832117 C53.7372263,36.1970803 55.6751825,34.2919708 59.4854015,34.2919708 C61.5218978,34.2919708 62.9014599,34.850365 63.3941606,35.2116788 C63.3941606,36.0985401 63,36.9525547 62.4087591,37.4452555 C61.6532847,36.689781 60.4708029,36.2956204 59.4854015,36.2956204 C58.1058394,36.2956204 56.6934307,37.0510949 56.6934307,39.2518248 C56.6934307,41.1569343 57.7116788,42.2408759 59.5182482,42.2408759 C60.1751825,42.2408759 60.8978102,42.1094891 61.1605839,41.9452555 L61.1605839,40.729927 L59.6167883,40.729927 C59.4525547,40.1715328 59.4525547,39.6131387 59.6167883,39.0547445 L63.459854,39.0547445 L63.459854,43.4562044 L63.2627737,43.6532847 C62.1459854,44.1131387 60.7992701,44.4087591 59.419708,44.4087591 C56.0364964,44.4744526 53.7372263,42.8649635 53.7372263,39.3832117" id="Path"></path>
                        <path d="M72.2627737,39.3832117 C72.2627737,37.5109489 71.4416058,36.4927007 69.8649635,36.4927007 C68.2883212,36.4927007 67.5,37.5109489 67.5,39.3832117 C67.5,41.2554745 68.2883212,42.2408759 69.8649635,42.2408759 C71.4416058,42.2737226 72.2627737,41.2883212 72.2627737,39.3832117 M64.5437956,39.3832117 C64.5437956,36.4270073 66.3832117,34.2919708 69.8649635,34.2919708 C73.3467153,34.2919708 75.2189781,36.4270073 75.2189781,39.3832117 C75.2189781,42.3394161 73.3467153,44.4744526 69.8649635,44.4744526 C66.3832117,44.4744526 64.5437956,42.3394161 64.5437956,39.3832117" id="Shape"></path>
                        <path d="M77.0912409,44.0474453 L77.0912409,36.689781 L75.7116788,36.6240876 C75.580292,35.9014599 75.580292,35.2116788 75.7116788,34.4890511 C77.0912409,34.3905109 78.3065693,34.3905109 79.6861314,34.4890511 L79.8832117,34.7189781 L79.8832117,42.0766423 L84.2846715,42.0766423 C84.4489051,42.7992701 84.4489051,43.5547445 84.2846715,44.2773723 L77.3211679,44.2773723 L77.0912409,44.0474453 Z" id="Path"></path>
                        <path d="M89.4087591,42.1094891 C90.1970803,42.1094891 90.8540146,41.9124088 91.2810219,41.419708 C91.6423358,40.959854 91.8394161,40.3029197 91.8394161,39.3175182 C91.8394161,38.2335766 91.5766423,37.5766423 91.1167883,37.1824818 C90.689781,36.8211679 90.0656934,36.6569343 89.4087591,36.6569343 L88.4233577,36.6569343 L88.4233577,42.1094891 L89.4087591,42.1094891 Z M85.6313869,44.0474453 L85.6313869,36.6569343 L84.2518248,36.6240876 C84.120438,35.9014599 84.120438,35.2116788 84.2518248,34.4890511 L90.0985401,34.4890511 C91.4781022,34.4890511 92.1350365,34.8832117 92.5291971,35.1131387 C94.1386861,36.0328467 94.7956204,37.6423358 94.7956204,39.350365 C94.7956204,41.0255474 94.1058394,42.7664234 92.5291971,43.6532847 C92.1021898,43.9160584 91.3138686,44.2773723 90.0985401,44.2773723 L85.8613139,44.2773723 L85.6313869,44.0474453 Z" id="Shape"></path>
                    </g>
                </g>
            </g>
        </g>
    </g>
</svg>