<?xml version="1.0" encoding="UTF-8"?>
<svg width="71px" height="55px" viewBox="0 0 71 55" version="1.1" xmlns="http://www.w3.org/2000/svg" xmlns:xlink="http://www.w3.org/1999/xlink">
    <!-- Generator: Sketch 60.1 (88133) - https://sketch.com -->
    <title>KFW</title>
    <desc>Created with Sketch.</desc>
    <g id="Designs" stroke="none" stroke-width="1" fill="none" fill-rule="evenodd">
        <g id="Landing_Desktop" transform="translate(-868.000000, -803.000000)" fill-rule="nonzero">
            <g id="Hero" transform="translate(0.000000, 0.000000)">
                <g id="Logos" transform="translate(166.000000, 769.000000)">
                    <g id="KFW" transform="translate(702.320000, 34.000000)">
                        <path d="M69.3611111,42.0987654 L0.509259259,42.0987654 L0.509259259,0.509259259 L69.3611111,0.509259259 L69.3611111,42.0987654 Z M69.8703704,3.55271368e-14 L1.47792889e-12,3.55271368e-14 L1.47792889e-12,42.5740741 L69.8364198,42.5740741 L69.8364198,3.55271368e-14 L69.8703704,3.55271368e-14 Z" id="Shape" fill="#FFFFFF"></path>
                        <path d="M1.47792889e-12,42.5740741 L1.47792889e-12,54.4907407 L66.712963,54.4907407 C66.712963,54.4907407 69.8703704,54.4907407 69.8703704,51.367284 L69.8703704,42.6080247 L1.47792889e-12,42.6080247 L1.47792889e-12,42.5740741 Z" id="Path" fill="#FFFFFF"></path>
                        <path d="M7.91049383,37.7191358 C7.63888889,37.8209877 7.12962963,37.9567901 6.51851852,37.9567901 C5.83950617,37.9567901 5.26234568,37.787037 4.82098765,37.345679 C4.41358025,36.9722222 4.17592593,36.3611111 4.17592593,35.6481481 C4.17592593,34.2901235 5.12654321,33.2716049 6.65432099,33.2716049 C7.19753086,33.2716049 7.60493827,33.3734568 7.80864198,33.4753086 L7.67283951,33.9506173 C7.43518519,33.8487654 7.12962963,33.7469136 6.65432099,33.7469136 C5.53395062,33.7469136 4.82098765,34.4259259 4.82098765,35.5802469 C4.82098765,36.7345679 5.53395062,37.4135802 6.58641975,37.4135802 C6.95987654,37.4135802 7.23148148,37.345679 7.36728395,37.2777778 L7.36728395,35.9197531 L6.45061728,35.9197531 L6.45061728,35.4444444 L7.94444444,35.4444444 L7.94444444,37.7191358 L7.91049383,37.7191358 Z" id="Path" fill="#FFFFFF"></path>
                        <path d="M8.82716049,33.4074074 C9.13271605,33.3395062 9.54012346,33.3055556 9.94753086,33.3055556 C10.5925926,33.3055556 11,33.4074074 11.2716049,33.6790123 C11.5092593,33.882716 11.6450617,34.1882716 11.6450617,34.5617284 C11.6450617,35.1728395 11.2716049,35.5802469 10.7962963,35.7160494 L10.7962963,35.75 C11.1358025,35.8858025 11.3734568,36.191358 11.4753086,36.6666667 C11.6111111,37.3117284 11.7469136,37.7530864 11.8148148,37.9228395 L11.2037037,37.9228395 C11.1358025,37.787037 11.0339506,37.4135802 10.8981481,36.8364198 C10.7623457,36.191358 10.5246914,35.9537037 9.98148148,35.9537037 L9.4382716,35.9537037 L9.4382716,37.9228395 L8.86111111,37.9228395 L8.86111111,33.4074074 L8.82716049,33.4074074 Z M9.40432099,35.5123457 L10.0154321,35.5123457 C10.6604938,35.5123457 11.0339506,35.1728395 11.0339506,34.6296296 C11.0339506,34.0524691 10.5925926,33.7808642 9.98148148,33.7808642 C9.70987654,33.7808642 9.50617284,33.8148148 9.40432099,33.8487654 L9.40432099,35.5123457 Z" id="Shape" fill="#FFFFFF"></path>
                        <path d="M13.0709877,33.3734568 L13.0709877,36.0895062 C13.0709877,37.1080247 13.5123457,37.5493827 14.1234568,37.5493827 C14.8024691,37.5493827 15.2438272,37.1080247 15.2438272,36.0895062 L15.2438272,33.3734568 L15.8549383,33.3734568 L15.8549383,36.0555556 C15.8549383,37.4475309 15.1080247,38.0246914 14.1234568,38.0246914 C13.1728395,38.0246914 12.4938272,37.4814815 12.4938272,36.0555556 L12.4938272,33.3734568 L13.0709877,33.3734568 Z M13.2067901,32.6944444 C13.2067901,32.5246914 13.3425926,32.3549383 13.5462963,32.3549383 C13.7160494,32.3549383 13.8858025,32.4907407 13.8858025,32.6944444 C13.8858025,32.8981481 13.75,33.0339506 13.5462963,33.0339506 C13.3425926,33.0339506 13.2067901,32.8981481 13.2067901,32.6944444 M14.4969136,32.6944444 C14.4969136,32.5246914 14.632716,32.3549383 14.8364198,32.3549383 C15.0401235,32.3549383 15.1759259,32.4907407 15.1759259,32.6944444 C15.1759259,32.8981481 15.0401235,33.0339506 14.8364198,33.0339506 C14.5987654,33.0339506 14.4969136,32.8981481 14.4969136,32.6944444" id="Shape" fill="#FFFFFF"></path>
                        <path d="M16.8734568,37.9228395 L16.8734568,33.3395062 L17.5185185,33.3395062 L18.9783951,35.6481481 C19.3179012,36.191358 19.5895062,36.6666667 19.7932099,37.1419753 L19.7932099,37.1419753 C19.7253086,36.5308642 19.7253086,35.9876543 19.7253086,35.2746914 L19.7253086,33.3734568 L20.2685185,33.3734568 L20.2685185,37.9567901 L19.6574074,37.9567901 L18.1975309,35.6481481 C17.8919753,35.1388889 17.5864198,34.6296296 17.3487654,34.1203704 L17.3148148,34.1203704 C17.3487654,34.6975309 17.3487654,35.2407407 17.3487654,36.0216049 L17.3487654,37.9907407 L16.8734568,37.9907407 L16.8734568,37.9228395 Z" id="Path" fill="#FFFFFF"></path>
                        <path d="M21.3549383,33.4074074 C21.7283951,33.3395062 22.1358025,33.3055556 22.6111111,33.3055556 C23.4598765,33.3055556 24.0709877,33.5092593 24.4783951,33.882716 C24.8858025,34.2561728 25.1234568,34.7993827 25.1234568,35.5123457 C25.1234568,36.2592593 24.8858025,36.8703704 24.4783951,37.2777778 C24.037037,37.7191358 23.3580247,37.9228395 22.441358,37.9228395 C22.0339506,37.9228395 21.6604938,37.8888889 21.3549383,37.8549383 L21.3549383,33.4074074 Z M21.9320988,37.4814815 C22.0679012,37.5154321 22.3055556,37.5154321 22.5432099,37.5154321 C23.7993827,37.5154321 24.4783951,36.8024691 24.4783951,35.5802469 C24.4783951,34.4938272 23.867284,33.8148148 22.6111111,33.8148148 C22.3055556,33.8148148 22.0679012,33.8487654 21.9320988,33.882716 L21.9320988,37.4814815 Z" id="Shape" fill="#FFFFFF"></path>
                        <polygon id="Path" fill="#FFFFFF" points="28.2469136 35.7839506 26.4814815 35.7839506 26.4814815 37.4475309 28.4506173 37.4475309 28.4506173 37.9228395 25.8703704 37.9228395 25.8703704 33.3734568 28.3487654 33.3734568 28.3487654 33.8487654 26.4814815 33.8487654 26.4814815 35.308642 28.2469136 35.308642"></polygon>
                        <path d="M29.2314815,37.9228395 L29.2314815,33.3395062 L29.8765432,33.3395062 L31.3364198,35.6481481 C31.6759259,36.191358 31.9475309,36.6666667 32.1512346,37.1419753 L32.1512346,37.1419753 C32.0833333,36.5308642 32.0833333,35.9876543 32.0833333,35.2746914 L32.0833333,33.3734568 L32.6265432,33.3734568 L32.6265432,37.9567901 L32.0154321,37.9567901 L30.5555556,35.6481481 C30.25,35.1388889 29.9444444,34.6296296 29.7067901,34.1203704 L29.6728395,34.1203704 C29.7067901,34.6975309 29.7067901,35.2407407 29.7067901,36.0216049 L29.7067901,37.9907407 L29.2314815,37.9907407 L29.2314815,37.9228395 Z" id="Path" fill="#FFFFFF"></path>
                        <path d="M6.14506173,7.33333333 L6.55246914,6.85802469 L8.58950617,4.65123457 L10.287037,4.65123457 L7.67283951,7.33333333 L10.4228395,11.5092593 L8.69135802,11.5092593 C8.01234568,10.4567901 7.33333333,9.40432099 6.65432099,8.31790123 L6.04320988,8.92901235 L6.04320988,11.5092593 L4.58333333,11.5092593 L4.58333333,4.68518519 L6.04320988,4.68518519 L6.04320988,7.36728395 L6.14506173,7.36728395 L6.14506173,7.33333333 Z" id="Path" fill="#FFFFFF"></path>
                        <path d="M11.1697531,7.53703704 L10.4907407,7.53703704 L10.4907407,6.75617284 L11.2037037,6.55246914 L11.2037037,5.94135802 C11.2037037,4.99074074 11.6111111,4.27777778 13.0709877,4.27777778 C13.4104938,4.27777778 13.9537037,4.3117284 14.4290123,4.44753086 L14.2592593,5.39814815 C13.9876543,5.33024691 13.6141975,5.2962963 13.4104938,5.2962963 C12.9012346,5.2962963 12.6296296,5.46604938 12.6296296,5.94135802 L12.6296296,6.55246914 L14.0216049,6.55246914 L14.0216049,7.50308642 L12.6296296,7.50308642 C12.6296296,7.94444444 12.6296296,11.0339506 12.6296296,11.4753086 L11.2376543,11.4753086 L11.2376543,7.53703704 L11.1697531,7.53703704 Z" id="Path" fill="#FFFFFF"></path>
                        <path d="M19.5555556,6.51851852 C19.4537037,7.0617284 19.3518519,7.70679012 19.25,8.25 L18.537037,11.5092593 L16.7037037,11.5092593 L15.0401235,4.65123457 L16.6018519,4.65123457 C16.8055556,5.5 17.1450617,7.33333333 17.3487654,8.14814815 C17.4506173,8.65740741 17.5524691,9.33641975 17.654321,9.84567901 L17.7222222,9.84567901 C17.8240741,9.37037037 17.9259259,8.72530864 18.0277778,8.21604938 C18.2314815,7.29938272 18.6049383,5.53395062 18.808642,4.65123457 L20.404321,4.65123457 C20.5061728,5.05864198 21.1851852,7.84259259 21.287037,8.18209877 C21.3209877,8.28395062 21.5925926,9.64197531 21.6604938,9.84567901 L21.7283951,9.84567901 C21.8302469,9.30246914 21.9320988,8.62345679 22.0339506,8.11419753 C22.2037037,7.29938272 22.5771605,5.5 22.7469136,4.68518519 L24.2746914,4.68518519 C23.9012346,6.21296296 22.9506173,10.2530864 22.6450617,11.5432099 L20.845679,11.5432099 C20.6080247,10.6604938 20.2685185,9.16666667 20.0308642,8.28395062 C19.9290123,7.97839506 19.7592593,6.89197531 19.6574074,6.58641975 L19.5555556,6.51851852 Z" id="Path" fill="#FFFFFF"></path>
                        <path d="M8.92901235,20.2685185 L8.4537037,18.7067901 L5.94135802,18.7067901 L5.46604938,20.2685185 L4.00617284,20.2685185 L6.34876543,13.4444444 L8.21604938,13.4444444 L10.4907407,20.2685185 L8.92901235,20.2685185 Z M7.63888889,15.9228395 L7.23148148,14.4290123 L7.19753086,14.4290123 L6.79012346,15.9567901 L6.2808642,17.7222222 L8.14814815,17.7222222 L7.63888889,15.9228395 Z" id="Shape" fill="#FFFFFF"></path>
                        <path d="M14.9722222,15.3117284 C14.8703704,15.8549383 14.7685185,16.5 14.6666667,17.0432099 L13.9537037,20.3024691 L12.1203704,20.3024691 L10.4567901,13.4444444 L12.0185185,13.4444444 C12.2222222,14.2932099 12.5617284,16.1265432 12.7654321,16.941358 C12.867284,17.4506173 12.9691358,18.1296296 13.0709877,18.6388889 L13.1388889,18.6388889 C13.2407407,18.1635802 13.3425926,17.5185185 13.4444444,17.0092593 C13.6481481,16.0925926 14.0216049,14.3271605 14.2253086,13.4444444 L15.8209877,13.4444444 C15.9228395,13.8518519 16.6018519,16.6358025 16.7037037,16.9753086 C16.7376543,17.0771605 17.0092593,18.4351852 17.0771605,18.6388889 L17.1450617,18.6388889 C17.2469136,18.095679 17.3487654,17.4166667 17.4506173,16.9074074 C17.6203704,16.0925926 17.9938272,14.2932099 18.1635802,13.4783951 L19.691358,13.4783951 C19.3179012,15.0061728 18.367284,19.0462963 18.0617284,20.3364198 L16.2623457,20.3364198 C16.0246914,19.4537037 15.6851852,17.9598765 15.4475309,17.0771605 C15.345679,16.7716049 15.1759259,15.6851852 15.0740741,15.3796296 L14.9722222,15.3117284 Z" id="Path" fill="#FFFFFF"></path>
                        <path d="M24.4444444,20.2685185 L23.9691358,18.7067901 L21.4567901,18.7067901 L20.9814815,20.2685185 L19.5216049,20.2685185 L21.8641975,13.4444444 L23.7314815,13.4444444 L26.0061728,20.2685185 L24.4444444,20.2685185 Z M23.154321,15.9228395 L22.7469136,14.4290123 L22.712963,14.4290123 L22.3055556,15.9567901 L21.7962963,17.7222222 L23.6635802,17.7222222 L23.154321,15.9228395 Z" id="Shape" fill="#FFFFFF"></path>
                        <path d="M30.6234568,17.1450617 L30.6234568,17.1450617 C31.2006173,17.3487654 31.404321,17.8240741 31.5401235,18.3333333 L32.0833333,20.2345679 L30.6234568,20.2345679 C30.4537037,19.6574074 30.2839506,19.0462963 30.1141975,18.4351852 C29.9104938,17.6882716 29.537037,17.4845679 28.9598765,17.4845679 L28.212963,17.4845679 L28.212963,20.2345679 L26.7530864,20.2345679 L26.7530864,13.4104938 L29.537037,13.4104938 C31.0987654,13.4104938 31.7777778,14.2932099 31.7777778,15.3796296 C31.8117284,16.1265432 31.4382716,16.8734568 30.6234568,17.1450617 M29.2993827,16.5 C29.7746914,16.5 30.3179012,16.2623457 30.3179012,15.4814815 C30.3179012,14.8024691 29.8765432,14.462963 29.2654321,14.462963 L28.212963,14.462963 L28.212963,16.5 L29.2993827,16.5 Z" id="Shape" fill="#FFFFFF"></path>
                        <path d="M33.0679012,20.2685185 L33.0679012,13.4444444 L35.6481481,13.4444444 C38.058642,13.4444444 38.7037037,15.0061728 38.7037037,16.8395062 C38.7037037,18.6728395 37.9567901,20.2685185 35.6141975,20.2685185 L33.0679012,20.2685185 Z M34.5617284,14.462963 L34.5617284,19.2160494 L35.4783951,19.2160494 C36.191358,19.2160494 37.1759259,18.8425926 37.1759259,16.8734568 C37.1759259,14.8703704 36.2592593,14.462963 35.4783951,14.462963 L34.5617284,14.462963 Z" id="Shape" fill="#FFFFFF"></path>
                        <polygon id="Path" fill="#1A1D24" points="4.41358025 50.654321 4.41358025 45.9012346 5.19444444 45.9012346 5.19444444 50.1111111 7.67283951 50.1111111 7.67283951 50.654321"></polygon>
                        <path d="M10.9320988,50.1450617 L11.3734568,50.1450617 L11.4074074,50.5864198 C11.2037037,50.6882716 10.9320988,50.7561728 10.6944444,50.7561728 C10.4228395,50.7561728 10.2191358,50.6882716 10.2191358,50.3487654 C10.2191358,50.3487654 10.2191358,50.3487654 10.2191358,50.3487654 C9.70987654,50.7901235 9.2345679,50.7901235 9.0308642,50.7901235 C8.21604938,50.7901235 8.01234568,50.212963 8.01234568,49.8055556 C8.01234568,49.1604938 8.62345679,48.8209877 9.37037037,48.787037 L10.1851852,48.7191358 L10.1851852,48.4814815 C10.1851852,47.9722222 10.0154321,47.8024691 9.50617284,47.8024691 C9.16666667,47.8024691 8.79320988,47.8703704 8.4537037,47.9722222 C8.41975309,47.8024691 8.35185185,47.632716 8.31790123,47.4969136 C8.69135802,47.3271605 9.2345679,47.2253086 9.70987654,47.2253086 C10.4907407,47.2253086 10.9320988,47.5308642 10.9320988,48.3796296 L10.9320988,50.1450617 L10.9320988,50.1450617 Z M9.40432099,49.1265432 C8.99691358,49.1604938 8.82716049,49.3302469 8.82716049,49.6358025 C8.82716049,49.9753086 8.99691358,50.1790123 9.37037037,50.1790123 C9.64197531,50.1790123 9.91358025,50.0432099 10.1851852,49.8055556 L10.1851852,49.0925926 L9.40432099,49.1265432 Z" id="Shape" fill="#1A1D24"></path>
                        <path d="M14.2253086,50.654321 L14.2253086,48.4814815 C14.2253086,48.0401235 14.1574074,47.8024691 13.6820988,47.8024691 C13.4104938,47.8024691 13.037037,47.9382716 12.7654321,48.1080247 L12.7654321,50.6882716 L11.9845679,50.6882716 L11.9845679,47.2932099 L12.7314815,47.2932099 L12.7314815,47.5987654 L12.7654321,47.5987654 C13.1388889,47.3611111 13.6141975,47.191358 13.9537037,47.191358 C14.8703704,47.191358 14.9722222,47.7685185 14.9722222,48.3117284 L14.9722222,50.654321 L14.2253086,50.654321 L14.2253086,50.654321 Z" id="Path" fill="#1A1D24"></path>
                        <path d="M18.0277778,47.4290123 L18.0277778,45.7314815 L18.7746914,45.7314815 L18.7746914,50.6882716 L18.0617284,50.6882716 L18.0617284,50.382716 C18.0617284,50.382716 18.0617284,50.382716 18.0617284,50.382716 C17.7561728,50.6203704 17.3487654,50.7561728 17.0092593,50.7561728 C15.9907407,50.7561728 15.7191358,49.9753086 15.7191358,49.0925926 C15.7191358,48.0401235 16.0925926,47.2592593 17.1450617,47.2592593 C17.3487654,47.191358 17.7561728,47.2253086 18.0277778,47.4290123 M18.0277778,47.9722222 C17.8580247,47.8703704 17.5185185,47.7685185 17.2469136,47.7685185 C16.8395062,47.7685185 16.4660494,48.0401235 16.4660494,49.0246914 C16.4660494,49.9074074 16.7716049,50.1450617 17.2469136,50.1450617 C17.4845679,50.1450617 17.8919753,49.9753086 18.0617284,49.8395062 L18.0617284,47.9722222 L18.0277778,47.9722222 Z" id="Shape" fill="#1A1D24"></path>
                        <path d="M22.5432099,48.8209877 L22.5432099,49.0925926 L20.2685185,49.0925926 C20.2685185,49.6697531 20.5061728,50.1450617 21.1851852,50.1450617 C21.558642,50.1450617 21.8981481,50.0771605 22.2716049,49.9074074 L22.441358,50.382716 C22.0339506,50.6203704 21.558642,50.7222222 21.0833333,50.7222222 C19.7932099,50.7222222 19.4876543,49.9074074 19.4876543,48.9907407 C19.4876543,48.3117284 19.7592593,47.191358 21.0493827,47.191358 C22.5092593,47.191358 22.5432099,48.3117284 22.5432099,48.8209877 M20.3024691,48.6851852 L21.8302469,48.6851852 C21.8302469,48.1080247 21.6604938,47.7006173 21.117284,47.7006173 C20.5401235,47.7006173 20.3364198,48.1419753 20.3024691,48.6851852" id="Shape" fill="#1A1D24"></path>
                        <path d="M25.6666667,47.4290123 C25.632716,47.5308642 25.5308642,47.8364198 25.462963,47.9382716 C25.1234568,47.8024691 24.8179012,47.7685185 24.5802469,47.7685185 C24.2746914,47.7685185 23.9691358,47.8703704 23.9691358,48.2098765 C23.9691358,48.4475309 24.3765432,48.5833333 24.6481481,48.6512346 C25.2253086,48.8209877 25.8703704,48.9907407 25.8703704,49.7376543 C25.8703704,50.4166667 25.3271605,50.7222222 24.4104938,50.7222222 C24.0030864,50.7222222 23.4598765,50.654321 23.1203704,50.4506173 L23.3240741,49.941358 C23.7993827,50.1450617 24.2067901,50.1790123 24.4444444,50.1790123 C24.8179012,50.1790123 25.1234568,50.0771605 25.1234568,49.7037037 C25.1234568,49.3981481 24.7839506,49.2962963 24.4444444,49.1604938 C23.8333333,48.9567901 23.2561728,48.8209877 23.2561728,48.1419753 C23.2561728,47.4969136 23.7993827,47.1574074 24.5802469,47.1574074 C24.8858025,47.191358 25.3611111,47.2592593 25.6666667,47.4290123" id="Path" fill="#1A1D24"></path>
                        <path d="M28.9598765,47.4290123 C28.9259259,47.5308642 28.8240741,47.8364198 28.7561728,47.9382716 C28.4166667,47.8024691 28.1111111,47.7685185 27.8734568,47.7685185 C27.5679012,47.7685185 27.2623457,47.8703704 27.2623457,48.2098765 C27.2623457,48.4475309 27.6697531,48.5833333 27.941358,48.6512346 C28.5185185,48.8209877 29.1635802,48.9907407 29.1635802,49.7376543 C29.1635802,50.4166667 28.6203704,50.7222222 27.7037037,50.7222222 C27.2962963,50.7222222 26.7530864,50.654321 26.4135802,50.4506173 L26.617284,49.941358 C27.0925926,50.1450617 27.5,50.1790123 27.7376543,50.1790123 C28.1111111,50.1790123 28.4166667,50.0771605 28.4166667,49.7037037 C28.4166667,49.3981481 28.0771605,49.2962963 27.7376543,49.1604938 C27.1265432,48.9567901 26.5493827,48.8209877 26.5493827,48.1419753 C26.5493827,47.4969136 27.0925926,47.1574074 27.8734568,47.1574074 C28.1790123,47.191358 28.6203704,47.2592593 28.9598765,47.4290123" id="Path" fill="#1A1D24"></path>
                        <path d="M30.3518519,46.7839506 C30.0802469,46.7839506 29.8765432,46.5802469 29.8765432,46.3425926 C29.8765432,46.1049383 30.0802469,45.9012346 30.3518519,45.9012346 C30.6234568,45.9012346 30.8271605,46.1049383 30.8271605,46.3425926 C30.8271605,46.5802469 30.6574074,46.7839506 30.3518519,46.7839506 M29.9783951,47.2592593 L30.7253086,47.2592593 L30.7253086,50.654321 L29.9783951,50.654321 L29.9783951,47.2592593 Z" id="Shape" fill="#1A1D24"></path>
                        <path d="M34.6635802,48.8209877 L34.6635802,49.0925926 L32.3888889,49.0925926 C32.3888889,49.6697531 32.6265432,50.1450617 33.3055556,50.1450617 C33.6790123,50.1450617 34.0185185,50.0771605 34.3919753,49.9074074 L34.5617284,50.382716 C34.154321,50.6203704 33.6790123,50.7222222 33.2037037,50.7222222 C31.9135802,50.7222222 31.6080247,49.9074074 31.6080247,48.9907407 C31.6080247,48.3117284 31.8796296,47.191358 33.1697531,47.191358 C34.6296296,47.191358 34.6635802,48.3117284 34.6635802,48.8209877 M32.4228395,48.6851852 L33.9506173,48.6851852 C33.9506173,48.1080247 33.7808642,47.7006173 33.2376543,47.7006173 C32.6604938,47.7006173 32.4567901,48.1419753 32.4228395,48.6851852" id="Shape" fill="#1A1D24"></path>
                        <path d="M35.8518519,49.2962963 C35.6141975,49.1604938 35.4104938,48.8888889 35.4104938,48.4135802 C35.4104938,47.5308642 36.1574074,47.1574074 36.8703704,47.1574074 C37.1080247,47.1574074 37.3796296,47.191358 37.5493827,47.2253086 L38.7037037,47.2253086 L38.7037037,47.632716 L38.1944444,47.632716 L38.1944444,47.6666667 C38.3302469,47.8364198 38.3981481,48.1080247 38.3981481,48.345679 C38.3981481,49.1265432 37.7530864,49.5339506 36.904321,49.5339506 L36.5308642,49.5339506 C36.2253086,49.5339506 36.0216049,49.5679012 36.0216049,49.7716049 C36.0216049,49.9074074 36.1574074,49.9753086 36.3271605,49.9753086 L37.2777778,49.9753086 C38.1265432,49.9753086 38.6018519,50.3148148 38.6018519,50.9938272 C38.6018519,51.6388889 37.9907407,52.1481481 36.8024691,52.1481481 C35.5462963,52.1481481 35.2746914,51.6388889 35.2746914,51.1635802 C35.2746914,50.7901235 35.5123457,50.5185185 35.7160494,50.382716 C35.4444444,50.3148148 35.308642,50.1450617 35.308642,49.8734568 C35.3425926,49.5339506 35.6141975,49.3641975 35.8518519,49.2962963 L35.8518519,49.2962963 Z M36.3950617,50.5185185 C36.2253086,50.5864198 36.0216049,50.8240741 36.0216049,51.0617284 C36.0216049,51.367284 36.1574074,51.6388889 36.904321,51.6388889 C37.5154321,51.6388889 37.8209877,51.4012346 37.8209877,51.0617284 C37.8209877,50.7901235 37.7191358,50.5185185 37.1080247,50.5185185 L36.3950617,50.5185185 Z M36.904321,47.7006173 C36.4290123,47.7006173 36.191358,47.9722222 36.191358,48.3796296 C36.191358,48.787037 36.462963,49.058642 36.8703704,49.058642 C37.3117284,49.058642 37.6512346,48.8549383 37.6512346,48.3796296 C37.6512346,48.0401235 37.4475309,47.7006173 36.904321,47.7006173" id="Shape" fill="#1A1D24"></path>
                        <path d="M42.3364198,48.8209877 L42.3364198,49.0925926 L40.0617284,49.0925926 C40.0617284,49.6697531 40.2993827,50.1450617 40.9783951,50.1450617 C41.3518519,50.1450617 41.691358,50.0771605 42.0648148,49.9074074 L42.2345679,50.382716 C41.8271605,50.6203704 41.3518519,50.7222222 40.8765432,50.7222222 C39.5864198,50.7222222 39.2808642,49.9074074 39.2808642,48.9907407 C39.2808642,48.3117284 39.5524691,47.191358 40.8425926,47.191358 C42.2685185,47.191358 42.3364198,48.3117284 42.3364198,48.8209877 M40.095679,48.6851852 L41.6234568,48.6851852 C41.6234568,48.1080247 41.4537037,47.7006173 40.9104938,47.7006173 C40.2993827,47.7006173 40.1296296,48.1419753 40.095679,48.6851852" id="Shape" fill="#1A1D24"></path>
                        <path d="M43.8641975,47.8024691 C44.2037037,47.462963 44.7469136,47.191358 45.0864198,47.191358 C45.1882716,47.191358 45.2561728,47.2592593 45.2561728,47.3950617 C45.2561728,47.5648148 45.154321,47.9722222 45.0185185,48.1080247 C44.6450617,48.1419753 44.2376543,48.1759259 43.8641975,48.1759259 L43.8641975,50.654321 L43.117284,50.654321 L43.117284,47.2592593 L43.8641975,47.2592593 C43.8641975,47.4290123 43.8302469,47.5987654 43.8302469,47.7685185 L43.8641975,47.8024691 Z" id="Path" fill="#1A1D24"></path>
                        <path d="M48.5154321,37.9228395 C47.3271605,37.9228395 46.6820988,37.4135802 46.6820988,36.6666667 C46.6820988,36.2592593 46.8858025,35.8179012 47.2932099,35.2746914 L57.6141975,21.2191358 C57.7160494,21.0833333 57.75,20.9135802 57.6141975,20.7098765 L48.0401235,7.50308642 C47.5987654,6.89197531 47.3611111,6.34876543 47.3611111,5.87345679 C47.3611111,5.09259259 48.0061728,4.61728395 49.2962963,4.61728395 L52.3858025,4.61728395 C53.6759259,4.61728395 54.4228395,4.85493827 55.3055556,6.04320988 L63.5895062,17.6203704 C64.5401235,18.808642 64.9814815,19.691358 64.9814815,20.8796296 C64.9814815,22.5092593 64.6419753,23.1203704 63.5895062,24.5462963 L55.1018519,36.3950617 C54.2530864,37.5833333 53.6759259,37.8209877 52.0802469,37.8209877 L48.5154321,37.8209877 L48.5154321,37.9228395 Z" id="Path" fill="#FFFFFF"></path>
                        <path d="M6.34876543,28.0432099 L9.20061728,28.0432099 L9.20061728,29.0277778 L4.37962963,29.0277778 L4.37962963,28.1450617 C5.53395062,27.1265432 7.4691358,25.5648148 7.4691358,24.3425926 C7.4691358,23.7314815 7.09567901,23.4259259 6.41666667,23.4259259 C6.07716049,23.4259259 5.43209877,23.4938272 4.7191358,23.9012346 L4.27777778,23.0524691 C5.12654321,22.4753086 6.00925926,22.2716049 6.65432099,22.2716049 C8.0462963,22.2716049 8.89506173,22.9845679 8.89506173,24.2407407 C8.89506173,25.7006173 7.33333333,27.058642 6.31481481,27.941358 L6.34876543,28.0432099 Z" id="Path" fill="#FFFFFF"></path>
                        <path d="M12.7993827,29.1296296 C10.6604938,29.1296296 10.117284,27.5339506 10.117284,25.7685185 C10.117284,24.1049383 10.6944444,22.3055556 12.8333333,22.3055556 C14.9722222,22.3055556 15.4814815,24.1049383 15.4814815,25.7345679 C15.4475309,27.5 14.7685185,29.1296296 12.7993827,29.1296296 M12.7993827,23.3919753 C11.6790123,23.3919753 11.5092593,24.7160494 11.5092593,25.7685185 C11.5092593,27.058642 11.712963,28.0771605 12.7993827,28.0771605 C13.7839506,28.0771605 14.0216049,26.9228395 14.0216049,25.7685185 C14.0216049,24.75 13.9197531,23.3919753 12.7993827,23.3919753" id="Shape" fill="#FFFFFF"></path>
                        <polygon id="Path" fill="#FFFFFF" points="17.7561728 23.6635802 16.3641975 23.7993827 16.3641975 22.8487654 17.8919753 22.3734568 19.1481481 22.3734568 19.1481481 29.0617284 17.7561728 29.0617284"></polygon>
                        <path d="M24.2407407,26.2438272 C23.7654321,26.5154321 23.2561728,26.6512346 22.7469136,26.6512346 C21.5925926,26.6512346 20.7098765,26.0061728 20.7098765,24.5802469 C20.7098765,23.154321 21.7283951,22.3395062 23.1203704,22.3395062 C25.0216049,22.3395062 25.7006173,23.6975309 25.7006173,25.4290123 C25.7006173,27.5339506 24.8858025,29.1296296 22.7808642,29.1296296 C22.0679012,29.1296296 21.4907407,28.9938272 21.2191358,28.8919753 L21.4567901,27.9074074 C21.9320988,28.0771605 22.3734568,28.1111111 22.6790123,28.1111111 C23.867284,28.1111111 24.2067901,26.9567901 24.2746914,26.3117284 L24.2407407,26.2438272 Z M23.0864198,25.632716 C23.7654321,25.632716 24.2067901,25.2932099 24.308642,25.2253086 L24.308642,25.0555556 C24.308642,24.4104938 24.1728395,23.4259259 23.154321,23.4259259 C22.441358,23.4259259 22.0679012,23.867284 22.0679012,24.5462963 C22.0679012,25.1574074 22.3055556,25.632716 23.0864198,25.632716" id="Shape" fill="#FFFFFF"></path>
                    </g>
                </g>
            </g>
        </g>
    </g>
</svg>