<?xml version="1.0" encoding="UTF-8"?>
<svg width="80px" height="60px" viewBox="0 0 80 60" version="1.1" xmlns="http://www.w3.org/2000/svg" xmlns:xlink="http://www.w3.org/1999/xlink">
    <!-- Generator: Sketch 60.1 (88133) - https://sketch.com -->
    <title>NTV</title>
    <desc>Created with Sketch.</desc>
    <g id="Designs" stroke="none" stroke-width="1" fill="none" fill-rule="evenodd">
        <g id="Landing_Desktop" transform="translate(-698.000000, -800.000000)" fill="#FFFFFF" fill-rule="nonzero">
            <g id="Hero" transform="translate(0.000000, 0.000000)">
                <g id="Logos" transform="translate(166.000000, 769.000000)">
                    <g id="NTV" transform="translate(532.490000, 31.000000)">
                        <polygon id="Path" points="25.9609756 26.0195122 33.7756098 41.5902439 20.9853659 59.502439 21.3658537 38.2536585 1.44950718e-12 29.7073171 21.9804878 22.9463415 23.502439 -1.42108547e-14 36.7609756 18.8195122 59.0634146 13.1707317 44.9560976 31.2292683"></polygon>
                        <path d="M51.8926829,39.5707317 L51.8926829,36.7317073 C51.8926829,36.6731707 51.8926829,36.6439024 51.9219512,36.5853659 C51.8634146,36.5853659 51.8341463,36.6146341 51.7756098,36.6146341 L48.497561,36.6146341 C48.4390244,36.6146341 48.4097561,36.6146341 48.3512195,36.5853659 C48.3512195,36.6439024 48.3804878,36.6731707 48.3804878,36.7317073 L48.3804878,39.6 L47.795122,39.6 L47.795122,33.4536585 L48.3804878,33.4536585 L48.3804878,36 C48.3804878,36.0585366 48.3804878,36.0878049 48.3512195,36.1463415 C48.4097561,36.1463415 48.4390244,36.1170732 48.497561,36.1170732 L51.7756098,36.1170732 C51.8341463,36.1170732 51.8634146,36.1170732 51.9219512,36.1463415 C51.9219512,36.0878049 51.8926829,36.0585366 51.8926829,36 L51.8926829,33.4536585 L52.4780488,33.4536585 L52.4780488,39.6 L51.8926829,39.6 L51.8926829,39.5707317 Z" id="Path"></path>
                        <rect id="Rectangle" x="54.2341463" y="33.4536585" width="1" height="6.14634146"></rect>
                        <path d="M59.4146341,34.2146341 C58.8585366,34.0097561 58.2439024,33.9512195 57.6878049,33.9512195 C57.4829268,33.9512195 57.3073171,33.9512195 57.102439,33.9804878 C57.1317073,34.0390244 57.1317073,34.097561 57.1317073,34.1560976 L57.1317073,38.8682927 C57.1317073,38.9268293 57.1317073,38.9560976 57.102439,39.0146341 C57.1609756,39.0146341 57.2780488,39.0439024 57.3073171,39.0439024 C57.5414634,39.0731707 57.7756098,39.0731707 58.0390244,39.0731707 C58.7707317,39.0731707 59.7073171,38.9268293 60.2634146,38.3707317 C60.7317073,37.902439 60.9365854,37.2292683 60.9365854,36.5853659 C60.9658537,35.5609756 60.4097561,34.595122 59.4146341,34.2146341 M60.4097561,38.9853659 C59.7365854,39.4829268 58.6243902,39.5707317 57.804878,39.5707317 C57.395122,39.5707317 56.9853659,39.5414634 56.5463415,39.4829268 L56.5463415,33.5121951 C56.6634146,33.5121951 56.7804878,33.4829268 56.897561,33.4829268 C57.1902439,33.4536585 57.5121951,33.4536585 57.804878,33.4536585 C58.7414634,33.4536585 59.8243902,33.6 60.5560976,34.2439024 C61.2,34.8292683 61.5512195,35.7073171 61.5512195,36.5853659 C61.5804878,37.5219512 61.2,38.4 60.4097561,38.9853659" id="Shape"></path>
                        <path d="M65.6780488,34.2146341 C65.1219512,34.0097561 64.5073171,33.9512195 63.9512195,33.9512195 C63.7463415,33.9512195 63.5707317,33.9512195 63.3658537,33.9804878 C63.395122,34.0390244 63.395122,34.097561 63.395122,34.1560976 L63.395122,38.8682927 C63.395122,38.9268293 63.395122,38.9560976 63.3658537,39.0146341 C63.4243902,39.0146341 63.5414634,39.0439024 63.5707317,39.0439024 C63.804878,39.0731707 64.0390244,39.0731707 64.302439,39.0731707 C65.0341463,39.0731707 65.9707317,38.9268293 66.5268293,38.3707317 C66.995122,37.902439 67.2,37.2292683 67.2,36.5853659 C67.2,35.5609756 66.6439024,34.595122 65.6780488,34.2146341 M66.6439024,38.9853659 C65.9707317,39.4829268 64.8585366,39.5707317 64.0390244,39.5707317 C63.6292683,39.5707317 63.2195122,39.5414634 62.8097561,39.4829268 L62.8097561,33.5121951 C62.9268293,33.5121951 63.0439024,33.4829268 63.1609756,33.4829268 C63.4536585,33.4536585 63.7756098,33.4536585 64.0682927,33.4536585 C65.004878,33.4536585 66.0878049,33.6 66.8195122,34.2439024 C67.4634146,34.8292683 67.8146341,35.7073171 67.8146341,36.5853659 C67.8146341,37.5219512 67.4341463,38.4 66.6439024,38.9853659" id="Shape"></path>
                        <path d="M72.6439024,39.5414634 L69.2195122,39.5414634 L69.2195122,33.5121951 L72.3219512,33.5121951 L72.3219512,33.9804878 L69.9219512,33.9804878 C69.8634146,33.9804878 69.8341463,33.9804878 69.7756098,33.9512195 C69.7756098,34.0097561 69.804878,34.0390244 69.804878,34.097561 L69.804878,36 C69.804878,36.0585366 69.804878,36.0878049 69.7756098,36.1463415 C69.8341463,36.1463415 69.8634146,36.1170732 69.9219512,36.1170732 L72.0878049,36.1170732 L72.0878049,36.5853659 L69.9219512,36.5853659 C69.8634146,36.5853659 69.8341463,36.5853659 69.7756098,36.5560976 C69.7756098,36.6146341 69.804878,36.6439024 69.804878,36.702439 L69.804878,38.9268293 C69.804878,38.9853659 69.804878,39.0146341 69.7756098,39.0731707 C69.8341463,39.0731707 69.8634146,39.0439024 69.9219512,39.0439024 L72.7317073,39.0439024 L72.6439024,39.5414634 Z" id="Path"></path>
                        <path d="M78.4390244,39.6585366 L75.2195122,35.7658537 C75.1317073,35.6780488 75.0731707,35.5902439 75.0146341,35.502439 C74.7219512,35.0926829 74.4,34.7121951 74.1073171,34.302439 L74.0780488,34.302439 C74.1073171,34.7707317 74.1658537,35.2682927 74.1658537,35.7365854 L74.1658537,39.6 L73.6682927,39.6 L73.6682927,33.4829268 L73.9609756,33.395122 L77.1512195,37.2585366 C77.5609756,37.7268293 77.8829268,38.2536585 78.2634146,38.7219512 L78.2926829,38.7219512 C78.2341463,38.2536585 78.204878,37.7853659 78.204878,37.3170732 L78.204878,33.4829268 L78.702439,33.4829268 L78.702439,39.5707317 L78.4390244,39.6585366 Z" id="Path"></path>
                        <path d="M37.6682927,47.3560976 C36,47.3560976 34.7707317,46.1268293 34.7707317,44.4292683 C34.7707317,42.7609756 35.9707317,41.4731707 37.697561,41.4731707 C38.3707317,41.4731707 38.9268293,41.6195122 39.4829268,42 L38.9560976,42.8487805 C38.5463415,42.5853659 38.1658537,42.4390244 37.697561,42.4390244 C36.5560976,42.4390244 35.9121951,43.2878049 35.9121951,44.3707317 C35.9121951,45.4829268 36.6731707,46.3609756 37.8146341,46.3609756 C38.2829268,46.3609756 38.7219512,46.2146341 39.102439,45.9512195 L39.5414634,46.7414634 C38.9560976,47.1512195 38.3414634,47.3560976 37.6682927,47.3560976" id="Path"></path>
                        <path d="M43.9609756,47.2097561 L43.9609756,44.8682927 C43.9609756,44.8097561 43.9609756,44.7512195 43.9902439,44.6926829 C43.9317073,44.7219512 43.902439,44.7219512 43.8439024,44.7219512 L41.4731707,44.7219512 C41.4146341,44.7219512 41.3853659,44.7219512 41.3268293,44.6926829 C41.3560976,44.7512195 41.3560976,44.7804878 41.3560976,44.8390244 L41.3560976,47.2097561 L40.302439,47.2097561 L40.302439,41.6195122 L41.3560976,41.6195122 L41.3560976,43.7853659 C41.3560976,43.8439024 41.3560976,43.8731707 41.3268293,43.9609756 C41.3853659,43.9317073 41.4146341,43.9317073 41.4731707,43.9317073 L43.8439024,43.9317073 C43.902439,43.9317073 43.9317073,43.9317073 43.9902439,43.9609756 C43.9609756,43.902439 43.9609756,43.8731707 43.9609756,43.8146341 L43.9609756,41.6487805 L45.0146341,41.6487805 L45.0146341,47.2390244 L43.9609756,47.2390244 L43.9609756,47.2097561 Z" id="Path"></path>
                        <path d="M48.5268293,42.7902439 L48.5268293,42.7902439 C48.2634146,43.5512195 47.9414634,44.2536585 47.6195122,44.9853659 C47.8243902,44.9853659 48,44.9560976 48.204878,44.9560976 L48.8195122,44.9560976 C49.0243902,44.9560976 49.2,44.9560976 49.404878,44.9853659 C49.0536585,44.2536585 48.7609756,43.5219512 48.5268293,42.7902439 M50.2536585,47.2097561 L49.6390244,45.6878049 L47.3560976,45.6878049 L46.7414634,47.2097561 L45.7463415,47.2097561 L48.1463415,41.502439 L48.995122,41.502439 L51.3658537,47.2097561 L50.2536585,47.2097561 Z" id="Shape"></path>
                        <path d="M57.8926829,47.2097561 C57.7170732,45.8634146 57.5414634,44.6634146 57.4829268,43.3170732 L57.4536585,43.3170732 C56.9560976,44.6634146 56.3414634,45.9219512 55.7268293,47.2097561 L55.0536585,47.2097561 C54.4682927,45.9219512 53.8536585,44.6634146 53.3560976,43.3463415 L53.3268293,43.3463415 C53.297561,43.9902439 53.2390244,44.604878 53.1512195,45.2195122 L52.9170732,47.1804878 L51.9804878,47.1804878 L52.7414634,41.5902439 L53.5902439,41.5902439 L54.9658537,44.604878 C55.1414634,45.0146341 55.3170732,45.395122 55.4634146,45.804878 L55.4926829,45.804878 C55.6390244,45.395122 55.8146341,44.9853659 55.9902439,44.604878 L57.3658537,41.5902439 L58.1853659,41.5902439 L58.9170732,47.1804878 L57.8926829,47.1804878 L57.8926829,47.2097561 Z" id="Path"></path>
                        <path d="M61.5804878,42.4097561 C61.404878,42.4097561 61.2,42.4097561 61.0243902,42.4390244 C61.0536585,42.497561 61.0536585,42.5560976 61.0536585,42.6439024 L61.0536585,44.195122 C61.0536585,44.2536585 61.0536585,44.3121951 61.0243902,44.3707317 C61.2,44.3707317 61.3756098,44.3707317 61.5512195,44.3707317 C62.195122,44.3707317 62.8097561,44.1365854 62.8097561,43.404878 C62.8097561,42.6439024 62.2536585,42.4097561 61.5804878,42.4097561 M61.7268293,45.1902439 C61.4926829,45.1902439 61.2585366,45.1609756 61.0243902,45.1609756 C61.0536585,45.2195122 61.0536585,45.2780488 61.0536585,45.3365854 L61.0536585,47.2097561 L60,47.2097561 L60,41.6195122 C60.5268293,41.5902439 61.0536585,41.5317073 61.5804878,41.5317073 C62.7512195,41.5317073 63.8634146,42 63.8634146,43.3463415 C63.8634146,44.5756098 62.8682927,45.1902439 61.7268293,45.1902439" id="Shape"></path>
                        <rect id="Rectangle" x="64.7121951" y="41.6195122" width="1.05365854" height="5.5902439"></rect>
                        <path d="M69.6585366,42.3804878 C68.5463415,42.3804878 67.9317073,43.2292683 67.9317073,44.2536585 C67.9317073,45.395122 68.604878,46.4195122 69.804878,46.4195122 C70.8878049,46.4195122 71.4731707,45.5707317 71.4731707,44.5463415 C71.5317073,43.4634146 70.8292683,42.3804878 69.6585366,42.3804878 M69.6878049,47.3560976 C67.9902439,47.3560976 66.8195122,46.0682927 66.8195122,44.4 C66.8195122,42.6731707 68.1073171,41.4731707 69.804878,41.4731707 C71.4731707,41.4731707 72.6439024,42.8195122 72.6439024,44.4292683 C72.6439024,46.1560976 71.4439024,47.3560976 69.6878049,47.3560976" id="Shape"></path>
                        <path d="M78.1170732,47.297561 L75.6292683,44.4878049 C75.2780488,44.1073171 74.9560976,43.697561 74.6341463,43.2878049 L74.604878,43.2878049 C74.6341463,43.7560976 74.6634146,44.2243902 74.6634146,44.6926829 L74.6634146,47.2097561 L73.697561,47.2097561 L73.697561,41.6780488 L74.3414634,41.502439 L76.8,44.2829268 C77.1512195,44.6634146 77.4731707,45.0731707 77.795122,45.4829268 L77.8243902,45.4829268 C77.795122,45.0146341 77.7658537,44.5463415 77.7658537,44.0780488 L77.7658537,41.5902439 L78.7317073,41.5902439 L78.7317073,47.1219512 L78.1170732,47.297561 Z" id="Path"></path>
                        <path d="M63.2195122,55.7560976 L58.5658537,55.7560976 L58.4780488,55.4341463 C59.1512195,54.8487805 59.8243902,54.2634146 60.4390244,53.6195122 C61.1414634,52.9463415 62.1365854,52.0097561 62.1365854,51.0146341 C62.1365854,50.3121951 61.4634146,49.7853659 60.702439,49.7853659 C60.1170732,49.7853659 59.6487805,50.0487805 59.2682927,50.4292683 L58.8878049,50.0780488 C59.4439024,49.5804878 59.9707317,49.2585366 60.7902439,49.2585366 C61.9317073,49.2585366 62.8390244,49.9609756 62.8390244,51.0146341 C62.8390244,51.9219512 62.2243902,52.595122 61.5804878,53.2390244 C60.8780488,53.9414634 60.1463415,54.5853659 59.3853659,55.2292683 L59.3853659,55.2585366 C60,55.2292683 60.6146341,55.2 61.2292683,55.2 L63.3365854,55.2 L63.2195122,55.7560976 Z" id="Path"></path>
                        <path d="M66.3512195,49.7560976 C64.9463415,49.7560976 64.7121951,51.6 64.7121951,52.5365854 C64.7121951,53.502439 65.004878,55.3756098 66.4390244,55.3756098 C67.8439024,55.3756098 68.0487805,53.502439 68.0487805,52.595122 C68.0487805,51.6585366 67.7853659,49.7560976 66.3512195,49.7560976 M66.3804878,55.8731707 C64.4780488,55.8731707 64.0097561,53.9707317 64.0097561,52.595122 C64.0097561,51.1902439 64.5365854,49.2585366 66.4682927,49.2585366 C68.2536585,49.2585366 68.7219512,51.2487805 68.7219512,52.5073171 C68.7512195,53.8536585 68.3121951,55.8731707 66.3804878,55.8731707" id="Shape"></path>
                        <path d="M71.9121951,55.8146341 L71.9121951,51.2195122 C71.9121951,50.8390244 71.9121951,50.4292683 71.9707317,50.0487805 L71.9414634,50.0487805 C71.297561,50.5170732 70.6243902,50.9560976 69.9219512,51.3073171 L69.6,50.9560976 C70.5365854,50.4585366 71.4146341,49.8731707 72.2634146,49.2878049 L72.5268293,49.404878 L72.5268293,55.8146341 L71.9121951,55.8146341 L71.9121951,55.8146341 Z" id="Path"></path>
                        <path d="M78.2341463,50.5463415 C77.2097561,52.302439 76.2731707,54.0878049 75.3365854,55.8731707 L74.6926829,55.6682927 C75.7170732,53.7073171 76.8,51.7756098 78,49.8731707 C77.5902439,49.902439 77.1804878,49.902439 76.8,49.902439 L74.1365854,49.902439 L74.1365854,49.3463415 L78.6439024,49.3463415 L78.7609756,49.6390244 L78.2341463,50.5463415 Z" id="Path"></path>
                        <path d="M41.0634146,53.4439024 L41.6780488,53.4439024 C41.9707317,52.8878049 42.4390244,52.0097561 42.4390244,52.0097561 L41.795122,52.0097561 C41.7658537,52.0097561 41.297561,52.9756098 41.0634146,53.4439024" id="Path"></path>
                        <path d="M38.8390244,55.7560976 L38.8390244,53.4439024 L39.395122,53.4439024 L39.395122,55.2585366 L39.4829268,55.2585366 C39.5121951,55.2585366 39.5707317,55.1707317 39.6,55.1121951 C39.6292683,55.0829268 40.4195122,53.4439024 40.4195122,53.4439024 L41.0634146,53.4439024 C41.0634146,53.4439024 40.0390244,55.404878 39.9804878,55.4926829 C39.8926829,55.6682927 39.7463415,55.7853659 39.6292683,55.7853659 C39.6,55.7560976 38.8390244,55.7560976 38.8390244,55.7560976" id="Path"></path>
                        <path d="M38.0487805,55.7560976 L37.4634146,55.7560976 L37.4634146,53.1219512 C37.4634146,52.6536585 37.7853659,52.302439 38.3121951,52.302439 C38.3414634,52.302439 38.4878049,52.302439 38.6341463,52.302439 L38.6341463,52.8585366 L38.4585366,52.8585366 C38.195122,52.8585366 38.0487805,52.9756098 38.0487805,53.1219512 L38.0487805,53.4439024 L38.604878,53.4439024 L38.604878,54.0292683 L38.0487805,54.0292683 L38.0487805,55.7560976 Z" id="Path"></path>
                        <path d="M35.7073171,54.1463415 L35.7073171,55.0243902 C35.7365854,55.3170732 36.0585366,55.3463415 36.1756098,55.3463415 C36.2926829,55.3463415 36.3804878,55.3170732 36.4682927,55.2878049 L36.4682927,53.9121951 C36.3804878,53.8536585 36.2634146,53.8243902 36.1756098,53.8243902 C35.9707317,53.8243902 35.7365854,53.9121951 35.7073171,54.1463415 M36.1463415,55.8439024 L36.1463415,55.8439024 C35.5609756,55.8439024 35.2097561,55.5512195 35.1512195,55.0243902 L35.1512195,54.1756098 C35.1512195,53.9707317 35.2390244,53.7658537 35.3853659,53.6195122 C35.5609756,53.4439024 35.8243902,53.3268293 36.1170732,53.3268293 C36.2634146,53.3268293 36.3804878,53.3560976 36.497561,53.3853659 L36.497561,52.2731707 L37.0829268,52.2731707 L37.0829268,55.6390244 C37.0536585,55.6390244 36.6146341,55.8439024 36.1463415,55.8439024" id="Shape"></path>
                        <path d="M42.497561,55.5512195 L42,54.4390244 L42,55.7853659 L41.795122,55.7853659 L41.795122,54.0292683 L42.0585366,54.0292683 L42.5853659,55.2292683 C42.7609756,54.8195122 42.9365854,54.4097561 43.1121951,54.0292683 L43.3756098,54.0292683 L43.3756098,55.7560976 L43.1707317,55.7560976 L43.1707317,54.4097561 L42.6731707,55.5219512 L42.497561,55.5219512 L42.497561,55.5512195 Z" id="Path"></path>
                        <path d="M44.4,55.2 C44.3121951,55.1707317 44.2243902,55.1414634 44.1073171,55.1414634 C43.9609756,55.1414634 43.8146341,55.1707317 43.8146341,55.3463415 C43.8146341,55.5219512 43.9317073,55.6097561 44.0780488,55.6097561 C44.195122,55.6097561 44.2829268,55.6097561 44.4,55.5804878 L44.4,55.2 Z M44.1073171,54.6731707 C43.9902439,54.6731707 43.8731707,54.7317073 43.8146341,54.8195122 L43.6682927,54.702439 C43.7853659,54.5853659 43.9609756,54.497561 44.1073171,54.497561 C44.3414634,54.497561 44.5756098,54.6439024 44.5756098,54.9073171 L44.5756098,55.7268293 C44.4,55.7853659 44.2243902,55.8146341 44.0487805,55.8146341 C43.7853659,55.8146341 43.6097561,55.6390244 43.6097561,55.3756098 C43.6097561,55.0829268 43.8439024,54.9658537 44.1073171,54.9658537 C44.195122,54.9658537 44.3121951,54.995122 44.3707317,55.0243902 L44.3707317,54.9073171 C44.4,54.7609756 44.2536585,54.6731707 44.1073171,54.6731707" id="Shape"></path>
                        <path d="M45.3365854,55.7853659 C45.0731707,55.7853659 44.897561,55.6390244 44.897561,55.3756098 L44.897561,54.0585366 L45.102439,54.0585366 L45.102439,55.3756098 C45.102439,55.5219512 45.1609756,55.5804878 45.3365854,55.5804878 L45.3365854,55.7853659 Z" id="Path"></path>
                        <path d="M45.9804878,54.6731707 C45.8341463,54.6731707 45.6878049,54.7609756 45.6878049,54.9073171 L45.6878049,55.0829268 L46.2731707,55.0829268 L46.2731707,54.9073171 C46.2731707,54.7317073 46.1268293,54.6731707 45.9804878,54.6731707 M45.6878049,55.3756098 C45.6878049,55.5219512 45.8341463,55.6097561 45.9804878,55.6097561 C46.097561,55.6097561 46.2146341,55.5512195 46.2731707,55.4341463 L46.4487805,55.5219512 C46.3609756,55.697561 46.1560976,55.8146341 45.9804878,55.8146341 C45.7463415,55.8146341 45.4829268,55.6682927 45.4829268,55.404878 L45.4829268,54.9073171 C45.4829268,54.6146341 45.7170732,54.497561 45.9804878,54.497561 C46.2146341,54.497561 46.4487805,54.6439024 46.4487805,54.9073171 L46.4487805,55.2585366 L45.6878049,55.2585366 L45.6878049,55.3756098 Z" id="Shape"></path>
                        <path d="M46.9170732,54.0585366 L46.9170732,55.0829268 C47.1219512,54.8780488 47.297561,54.702439 47.502439,54.497561 L47.7658537,54.497561 L47.2097561,55.0829268 L47.7658537,55.7853659 L47.5317073,55.7853659 L47.0926829,55.2292683 L46.9463415,55.3756098 L46.9463415,55.7853659 L46.7414634,55.7853659 L46.7414634,54.0878049 L46.9170732,54.0878049 L46.9170732,54.0585366 Z" id="Path"></path>
                        <path d="M47.8829268,55.7560976 L48.0878049,55.7560976 L48.0878049,54.497561 L47.8829268,54.497561 L47.8829268,55.7560976 Z M47.9707317,54.0585366 C48.0585366,54.0585366 48.1170732,54.1170732 48.1170732,54.204878 C48.1170732,54.2926829 48.0585366,54.3512195 47.9707317,54.3512195 C47.8829268,54.3512195 47.8243902,54.2926829 47.8243902,54.204878 C47.8536585,54.1170732 47.9121951,54.0585366 47.9707317,54.0585366" id="Shape"></path>
                        <path d="M48.995122,54.5560976 C48.995122,54.204878 49.3170732,54.0292683 49.6390244,54.0292683 C49.8731707,54.0292683 50.1365854,54.1463415 50.2536585,54.3804878 L50.0780488,54.4682927 C49.9902439,54.3219512 49.8146341,54.2341463 49.6390244,54.2341463 C49.404878,54.2341463 49.2,54.3512195 49.2,54.5560976 L49.2,55.2585366 C49.2,55.4926829 49.4341463,55.6097561 49.6390244,55.6097561 C49.8731707,55.6097561 50.0780488,55.4926829 50.0780488,55.2585366 L50.0780488,55.0829268 L49.6097561,55.0829268 L49.6097561,54.8780488 L50.3121951,54.8780488 L50.3121951,55.2585366 C50.3121951,55.6390244 49.9902439,55.8146341 49.6682927,55.8146341 C49.3463415,55.8146341 49.0243902,55.6390244 49.0243902,55.2585366 L49.0243902,54.5560976 L48.995122,54.5560976 Z" id="Path"></path>
                        <path d="M51.1317073,54.497561 L51.1317073,54.702439 C51.0439024,54.702439 51.0146341,54.6731707 50.9268293,54.702439 C50.8390244,54.7317073 50.7219512,54.7902439 50.7219512,54.9073171 L50.7219512,55.7560976 L50.5170732,55.7560976 L50.5170732,54.9073171 C50.5170732,54.6731707 50.6926829,54.5268293 50.8682927,54.497561 C50.9853659,54.497561 51.0731707,54.497561 51.1317073,54.497561" id="Path"></path>
                        <path d="M51.4829268,54.9073171 L51.4829268,55.3756098 C51.4829268,55.5219512 51.6292683,55.6097561 51.7756098,55.6097561 C51.9219512,55.6097561 52.0682927,55.5512195 52.0682927,55.3756098 L52.0682927,54.9073171 C52.0682927,54.7609756 51.9219512,54.6731707 51.7756098,54.6731707 C51.6585366,54.6731707 51.4829268,54.7317073 51.4829268,54.9073171 M51.7756098,54.4682927 C52.0097561,54.4682927 52.2731707,54.6146341 52.2731707,54.8780488 L52.2731707,55.3463415 C52.2731707,55.6390244 52.0390244,55.7560976 51.7756098,55.7560976 C51.5414634,55.7560976 51.2780488,55.6097561 51.2780488,55.3463415 L51.2780488,54.9073171 C51.3073171,54.6146341 51.5414634,54.4682927 51.7756098,54.4682927" id="Shape"></path>
                        <path d="M53.5317073,55.697561 C53.297561,55.7853659 53.1512195,55.7853659 53.0341463,55.7853659 C52.8,55.7853659 52.5658537,55.6390244 52.5658537,55.3756098 L52.5658537,54.497561 L52.7707317,54.497561 L52.7707317,55.3756098 C52.7707317,55.5219512 52.9170732,55.6097561 53.0634146,55.6097561 C53.1804878,55.6097561 53.2682927,55.6097561 53.3560976,55.5804878 L53.3560976,54.5268293 L53.5609756,54.5268293 L53.5609756,55.697561 L53.5317073,55.697561 Z" id="Path"></path>
                        <path d="M54,55.5512195 C54.0878049,55.5804878 54.204878,55.6097561 54.2926829,55.6097561 C54.4390244,55.6097561 54.5853659,55.5219512 54.5853659,55.3756098 L54.5853659,54.9073171 C54.5853659,54.7609756 54.4390244,54.6731707 54.2926829,54.6731707 C54.204878,54.6731707 54.0878049,54.6731707 54,54.702439 L54,55.5512195 Z M53.795122,54.5853659 C53.9707317,54.5268293 54.1170732,54.497561 54.2926829,54.497561 C54.5268293,54.497561 54.7902439,54.6439024 54.7902439,54.9073171 L54.7902439,55.3756098 C54.7902439,55.6390244 54.5560976,55.8146341 54.2926829,55.7853659 C54.204878,55.7853659 54.0878049,55.7853659 54,55.7268293 L54,56.2243902 L53.795122,56.2243902 L53.795122,54.5853659 Z" id="Shape"></path>
                        <rect id="Rectangle" x="35.2390244" y="49.2292683" width="1" height="1.34634146"></rect>
                        <path d="M36.7902439,50.604878 L36.1170732,49.8146341 C36.0292683,49.7268293 35.9707317,49.6390244 35.8829268,49.5219512 L35.8829268,49.5219512 C35.8829268,49.6390244 35.8829268,49.7268293 35.8829268,49.8146341 L35.8829268,50.5756098 L35.7073171,50.5756098 L35.7073171,49.2292683 L35.795122,49.2 L36.4682927,49.9902439 C36.5560976,50.0780488 36.6146341,50.195122 36.702439,50.2829268 L36.702439,50.2829268 C36.702439,50.195122 36.702439,50.0780488 36.702439,49.9902439 L36.702439,49.2585366 L36.8780488,49.2585366 L36.8780488,50.604878 L36.7902439,50.604878 Z" id="Path"></path>
                        <path d="M38.4878049,50.5756098 L38.0487805,49.9902439 C38.0195122,49.9609756 38.0195122,49.9609756 37.9902439,49.9317073 C37.9609756,49.9902439 37.902439,50.0195122 37.8731707,50.0780488 L37.8731707,50.5756098 L37.697561,50.5756098 L37.697561,49.2292683 L37.8731707,49.2292683 L37.8731707,49.6097561 C37.8731707,49.697561 37.8731707,49.8146341 37.8731707,49.902439 L37.8731707,49.902439 C38.0780488,49.6682927 38.3121951,49.4341463 38.5170732,49.2 L38.6926829,49.2585366 L38.1658537,49.7853659 C38.1365854,49.8146341 38.1365854,49.8146341 38.1073171,49.8439024 C38.1365854,49.8731707 38.1365854,49.902439 38.1658537,49.902439 L38.6926829,50.5756098 L38.4878049,50.5756098 Z" id="Path"></path>
                        <path d="M39.395122,49.3463415 C39.102439,49.3463415 38.9268293,49.5804878 38.9268293,49.8439024 C38.9268293,50.1365854 39.1317073,50.4292683 39.4536585,50.4292683 C39.7463415,50.4292683 39.9219512,50.195122 39.9219512,49.9317073 C39.8926829,49.6390244 39.7170732,49.3463415 39.395122,49.3463415 M39.395122,50.604878 C38.9853659,50.604878 38.7219512,50.2829268 38.7219512,49.902439 C38.7219512,49.4926829 39.0146341,49.2 39.4243902,49.2 C39.8341463,49.2 40.097561,49.5219512 40.097561,49.902439 C40.097561,50.3121951 39.804878,50.604878 39.395122,50.604878" id="Shape"></path>
                        <path d="M40.9756098,49.3463415 C40.6829268,49.3463415 40.5073171,49.5804878 40.5073171,49.8439024 C40.5073171,50.1365854 40.7121951,50.4292683 41.0341463,50.4292683 C41.3268293,50.4292683 41.502439,50.195122 41.502439,49.9317073 C41.4731707,49.6390244 41.297561,49.3463415 40.9756098,49.3463415 M40.9756098,50.604878 C40.5658537,50.604878 40.302439,50.2829268 40.302439,49.902439 C40.302439,49.4926829 40.595122,49.2 41.004878,49.2 C41.4146341,49.2 41.6780488,49.5219512 41.6780488,49.902439 C41.6780488,50.3121951 41.3853659,50.604878 40.9756098,50.604878" id="Shape"></path>
                        <path d="M42.2926829,49.3463415 C42.2341463,49.3463415 42.1756098,49.3463415 42.1170732,49.3463415 C42.1170732,49.3756098 42.1170732,49.3756098 42.1170732,49.404878 L42.1170732,49.8439024 C42.1170732,49.8731707 42.1170732,49.8731707 42.1170732,49.902439 C42.1756098,49.902439 42.2341463,49.902439 42.2926829,49.902439 C42.4682927,49.902439 42.6146341,49.8146341 42.6146341,49.6390244 C42.6146341,49.4341463 42.4682927,49.3463415 42.2926829,49.3463415 M42.3219512,50.0487805 C42.2634146,50.0487805 42.1756098,50.0487805 42.1170732,50.0487805 C42.1170732,50.0487805 42.1170732,50.0780488 42.1170732,50.0780488 L42.1170732,50.5756098 L41.9414634,50.5756098 L41.9414634,49.2292683 C42.0585366,49.2292683 42.1756098,49.2 42.2926829,49.2 C42.5560976,49.2 42.7902439,49.3170732 42.7902439,49.6097561 C42.7902439,49.902439 42.5853659,50.0487805 42.3219512,50.0487805" id="Shape"></path>
                        <path d="M43.8146341,50.5756098 L43.0243902,50.5756098 L43.0243902,49.2292683 L43.7560976,49.2292683 L43.7560976,49.3756098 L43.2292683,49.3756098 C43.2,49.3756098 43.2,49.3756098 43.2,49.3756098 C43.2,49.3756098 43.2,49.404878 43.2,49.404878 L43.2,49.7560976 C43.2,49.7560976 43.2,49.7853659 43.2,49.7853659 C43.2,49.7853659 43.2292683,49.7853659 43.2292683,49.7853659 L43.697561,49.7853659 L43.697561,49.9317073 L43.2292683,49.9317073 C43.2,49.9317073 43.2,49.9317073 43.2,49.9317073 C43.2,49.9317073 43.2,49.9609756 43.2,49.9609756 L43.2,50.4 C43.2,50.4 43.2,50.4292683 43.2,50.4292683 C43.2,50.4292683 43.2292683,50.4292683 43.2292683,50.4292683 L43.8439024,50.4292683 L43.8146341,50.5756098 Z" id="Path"></path>
                        <path d="M44.3707317,49.3463415 C44.3121951,49.3463415 44.2536585,49.3463415 44.2243902,49.3463415 C44.2243902,49.3756098 44.2243902,49.3756098 44.2243902,49.404878 L44.2243902,49.8439024 C44.2243902,49.8731707 44.2243902,49.8731707 44.2243902,49.902439 C44.2536585,49.8731707 44.4292683,49.902439 44.4878049,49.902439 C44.6341463,49.902439 44.6926829,49.7560976 44.6926829,49.6390244 C44.6926829,49.4341463 44.5463415,49.3463415 44.3707317,49.3463415 M44.8097561,50.5756098 L44.4292683,50.0195122 C44.3707317,50.0195122 44.2536585,50.0195122 44.195122,50.0195122 C44.195122,50.0487805 44.195122,50.0487805 44.195122,50.0780488 L44.195122,50.604878 L44.0487805,50.604878 L44.0487805,49.2585366 C44.1658537,49.2585366 44.2536585,49.2292683 44.3707317,49.2292683 C44.6341463,49.2292683 44.897561,49.3170732 44.897561,49.6097561 C44.897561,49.7853659 44.7804878,49.9317073 44.6341463,49.9902439 C44.6634146,50.0195122 44.6634146,50.0487805 44.6926829,50.0780488 L45.0731707,50.604878 L44.8097561,50.604878 L44.8097561,50.5756098 Z" id="Shape"></path>
                        <path d="M45.8926829,49.8439024 C45.8341463,49.697561 45.7756098,49.5804878 45.7170732,49.4341463 L45.7170732,49.4341463 C45.6878049,49.5219512 45.6585366,49.6390244 45.6,49.7268293 C45.5707317,49.8146341 45.5121951,49.902439 45.4829268,50.0195122 C45.5414634,50.0195122 45.5707317,50.0195122 45.6292683,50.0195122 L45.8341463,50.0195122 C45.8926829,50.0195122 45.9219512,50.0195122 45.9804878,50.0195122 C45.9512195,49.9609756 45.9219512,49.902439 45.8926829,49.8439024 M46.1853659,50.5756098 L46.0097561,50.1365854 L45.4536585,50.1365854 L45.2780488,50.5756098 L45.102439,50.5756098 L45.6878049,49.2 L45.8341463,49.2 L46.3902439,50.5756098 L46.1853659,50.5756098 Z" id="Shape"></path>
                        <path d="M46.9463415,49.3756098 C46.9463415,49.3756098 46.9170732,49.3756098 46.9170732,49.3756098 C46.9170732,49.3756098 46.9170732,49.404878 46.9170732,49.404878 L46.9170732,50.5756098 L46.7414634,50.5756098 L46.7414634,49.404878 C46.7414634,49.3756098 46.7414634,49.3756098 46.7414634,49.3756098 C46.7414634,49.3756098 46.7121951,49.3756098 46.7121951,49.3756098 L46.2731707,49.3756098 L46.2731707,49.2292683 L47.3853659,49.2292683 L47.3853659,49.3756098 L46.9463415,49.3756098 Z" id="Path"></path>
                        <rect id="Rectangle" x="47.5902439" y="49.2292683" width="1" height="1.34634146"></rect>
                        <path d="M48.6731707,49.3463415 C48.3804878,49.3463415 48.204878,49.5804878 48.204878,49.8439024 C48.204878,50.1365854 48.4097561,50.4292683 48.7317073,50.4292683 C49.0243902,50.4292683 49.2,50.195122 49.2,49.9317073 C49.1707317,49.6390244 48.9658537,49.3463415 48.6731707,49.3463415 M48.6731707,50.604878 C48.2634146,50.604878 48,50.2829268 48,49.902439 C48,49.4926829 48.2926829,49.2 48.702439,49.2 C49.1121951,49.2 49.3756098,49.5219512 49.3756098,49.902439 C49.3756098,50.3121951 49.0829268,50.604878 48.6731707,50.604878" id="Shape"></path>
                        <path d="M50.7219512,50.604878 L50.0487805,49.8146341 C49.9609756,49.7268293 49.902439,49.6390244 49.8146341,49.5219512 L49.8146341,49.5219512 C49.8146341,49.6390244 49.8146341,49.7268293 49.8146341,49.8146341 L49.8146341,50.5756098 L49.6390244,50.5756098 L49.6390244,49.2292683 L49.7268293,49.2 L50.4,49.9902439 C50.4878049,50.0780488 50.5463415,50.195122 50.6341463,50.2829268 L50.6341463,50.2829268 C50.6341463,50.195122 50.6341463,50.0780488 50.6341463,49.9902439 L50.6341463,49.2585366 L50.8097561,49.2585366 L50.8097561,50.604878 L50.7219512,50.604878 Z" id="Path"></path>
                        <path d="M52.9463415,50.5756098 C52.9170732,50.2243902 52.8585366,49.8731707 52.8585366,49.5219512 L52.8585366,49.5219512 C52.8,49.6682927 52.7414634,49.8146341 52.6829268,49.9317073 L52.3902439,50.5463415 L52.2439024,50.5463415 L51.9512195,49.9317073 C51.8926829,49.7853659 51.8341463,49.6682927 51.7756098,49.5219512 L51.7756098,49.5219512 C51.7756098,49.8731707 51.7170732,50.195122 51.6585366,50.5463415 L51.4829268,50.5463415 L51.6585366,49.2 L51.804878,49.2 L52.1853659,50.0487805 C52.2146341,50.1365854 52.2731707,50.2243902 52.302439,50.3414634 L52.302439,50.3414634 C52.3317073,50.2536585 52.3902439,50.1658537 52.4195122,50.0487805 L52.8,49.2 L52.9463415,49.2 L53.0926829,50.5463415 L52.9463415,50.5463415 L52.9463415,50.5756098 Z" id="Path"></path>
                        <rect id="Rectangle" x="53.4439024" y="49.2292683" width="1" height="1.34634146"></rect>
                        <path d="M54.497561,49.3756098 C54.497561,49.3756098 54.4682927,49.3756098 54.4682927,49.3756098 C54.4682927,49.3756098 54.4682927,49.404878 54.4682927,49.404878 L54.4682927,50.5756098 L54.2926829,50.5756098 L54.2926829,49.404878 C54.2926829,49.3756098 54.2926829,49.3756098 54.2926829,49.3756098 C54.2926829,49.3756098 54.2634146,49.3756098 54.2634146,49.3756098 L53.8243902,49.3756098 L53.8243902,49.2292683 L54.9365854,49.2292683 L54.9365854,49.3756098 L54.497561,49.3756098 Z" id="Path"></path>
                        <path d="M42.7609756,38.1073171 L41.8829268,38.1073171 L41.1219512,36.1756098 L40.4487805,36.1756098 L40.4487805,37.1414634 C40.4487805,37.2878049 40.5365854,37.3463415 40.6243902,37.3463415 L40.9463415,37.3463415 L40.9463415,38.1658537 L40.2439024,38.1658537 C39.8341463,38.1658537 39.5707317,37.902439 39.5707317,37.4926829 L39.5707317,34.4487805 L40.4487805,34.2731707 L40.4487805,35.3268293 L41.7365854,35.3268293 L42.3219512,36.995122 L42.9073171,35.3268293 L43.8439024,35.3268293 L42.7609756,38.1073171 Z M36.6439024,35.3268293 L38.5170732,35.3268293 C38.897561,35.3268293 39.1902439,35.5902439 39.1902439,36 L39.1902439,38.1073171 L38.3121951,38.1073171 L38.3121951,36.3512195 C38.3121951,36.2341463 38.2536585,36.1756098 38.1365854,36.1756098 L37.5512195,36.1756098 L37.5512195,38.1073171 L36.6731707,38.1073171 L36.6731707,35.3268293 L36.6439024,35.3268293 Z M35.0926829,39.5707317 L44.9560976,39.5707317 L44.9560976,33.4243902 L35.0926829,33.4243902 L35.0926829,39.5707317 L35.0926829,39.5707317 Z" id="Shape"></path>
                    </g>
                </g>
            </g>
        </g>
    </g>
</svg>