<?xml version="1.0" encoding="UTF-8"?>
<svg width="82px" height="60px" viewBox="0 0 82 60" version="1.1" xmlns="http://www.w3.org/2000/svg" xmlns:xlink="http://www.w3.org/1999/xlink">
    <!-- Generator: Sketch 60.1 (88133) - https://sketch.com -->
    <title>Spark</title>
    <desc>Created with Sketch.</desc>
    <g id="Designs" stroke="none" stroke-width="1" fill="none" fill-rule="evenodd">
        <g id="Landing_Desktop" transform="translate(-1192.000000, -800.000000)" fill="#FFFFFF" fill-rule="nonzero">
            <g id="Hero" transform="translate(0.000000, 0.000000)">
                <g id="Logos" transform="translate(166.000000, 769.000000)">
                    <g id="Spark" transform="translate(1026.980000, 31.000000)">
                        <path d="M22.1785714,0 L14.6071429,5.57142857 L14.6071429,7.25 C14.5,6.96428571 14.3214286,6.71428571 14.1428571,6.5 C13.9285714,6.28571429 13.6785714,6.10714286 13.3571429,5.96428571 C13.0357143,5.82142857 12.7142857,5.78571429 12.3571429,5.78571429 C12,5.78571429 11.7142857,5.82142857 11.5,5.92857143 C11.2857143,6.03571429 11.0714286,6.14285714 10.9285714,6.32142857 C10.7857143,6.5 10.6428571,6.71428571 10.5714286,6.96428571 C10.4642857,7.21428571 10.3928571,7.46428571 10.3214286,7.78571429 C10.2857143,7.89285714 10.25,8 10.2142857,8.14285714 C10.1785714,8.28571429 10.1071429,8.39285714 10.0714286,8.53571429 C10,8.64285714 9.92857143,8.75 9.82142857,8.82142857 C9.71428571,8.89285714 9.60714286,8.92857143 9.46428571,8.92857143 C9.32142857,8.92857143 9.21428571,8.89285714 9.14285714,8.85714286 C9.03571429,8.78571429 8.96428571,8.71428571 8.92857143,8.64285714 C8.89285714,8.57142857 8.82142857,8.46428571 8.78571429,8.35714286 C8.75,8.25 8.75,8.14285714 8.75,8.03571429 C8.75,7.71428571 8.82142857,7.39285714 8.96428571,7.10714286 C9.10714286,6.82142857 9.28571429,6.57142857 9.5,6.32142857 L7.96428571,5.5 C7.71428571,5.89285714 7.5,6.28571429 7.35714286,6.71428571 C7.21428571,7.14285714 7.14285714,7.60714286 7.14285714,8.07142857 C7.14285714,8.42857143 7.21428571,8.82142857 7.28571429,9.17857143 C7.39285714,9.53571429 7.57142857,9.85714286 7.82142857,10.1428571 C8.07142857,10.4285714 8.35714286,10.6428571 8.71428571,10.75 C9.07142857,10.8571429 9.42857143,10.8928571 9.78571429,10.8928571 C10.0714286,10.8928571 10.3571429,10.8571429 10.5714286,10.75 C10.7857143,10.6428571 10.9642857,10.5357143 11.1428571,10.3571429 C11.2857143,10.1785714 11.4285714,10 11.5357143,9.78571429 C11.6428571,9.57142857 11.75,9.32142857 11.8214286,9.07142857 L11.9642857,8.57142857 C12,8.5 12.0357143,8.39285714 12.0714286,8.28571429 C12.1071429,8.17857143 12.1428571,8.10714286 12.2142857,8 C12.2857143,7.92857143 12.3214286,7.85714286 12.3928571,7.78571429 C12.4642857,7.71428571 12.5714286,7.71428571 12.6785714,7.71428571 C12.7857143,7.71428571 12.8571429,7.75 12.9285714,7.78571429 C13,7.82142857 13.0714286,7.89285714 13.1071429,8 C13.1428571,8.07142857 13.2142857,8.17857143 13.2142857,8.25 C13.25,8.35714286 13.25,8.42857143 13.25,8.53571429 C13.25,8.78571429 13.2142857,9 13.1071429,9.21428571 C13.0357143,9.42857143 12.8928571,9.64285714 12.75,9.78571429 L14.2142857,10.5357143 C14.3214286,10.3571429 14.3928571,10.2142857 14.4642857,10 C14.5357143,9.85714286 14.5714286,9.67857143 14.6071429,9.5 L14.6071429,13.1785714 L7.28571429,13.1785714 L7.28571429,9.96428571 L5.67857143,9.96428571 L5.67857143,12.2142857 L4.42857143,12.2142857 L4.42857143,10.0714286 L2.82142857,10.0714286 L2.82142857,12.2142857 L1.60714286,12.2142857 L1.60714286,9.96428571 L-9.09494702e-13,9.96428571 L-9.09494702e-13,14.1428571 L7.32142857,14.1428571 L7.32142857,15.1071429 L9.75,15.1071429 L9.75,16.1785714 C9.75,17 9.96428571,17.6428571 10.3571429,18.1071429 C10.75,18.5714286 11.3928571,18.7857143 12.25,18.7857143 C12.6785714,18.7857143 13.0357143,18.7142857 13.3214286,18.6071429 C13.6428571,18.4642857 13.8928571,18.2857143 14.0714286,18.0714286 C14.25,17.8214286 14.3928571,17.5714286 14.5,17.2142857 C14.6071429,16.8928571 14.6428571,16.5357143 14.6428571,16.1428571 L14.6428571,22.5 L7.32142857,19.6785714 L7.32142857,21.7142857 L4.32142857,21.7142857 L4.32142857,18.9642857 L7.32142857,18.9642857 L7.32142857,17.0714286 L-9.09494702e-13,17.0714286 L-9.09494702e-13,18.9642857 L2.82142857,18.9642857 L2.82142857,21.7142857 L-9.09494702e-13,21.7142857 L-9.09494702e-13,23.6071429 L7.32142857,23.6071429 L7.32142857,21.7142857 L8.60714286,22.2142857 L8.60714286,24.8214286 L7.32142857,25.2857143 L7.32142857,27.3214286 L1.60714286,27.3214286 L1.60714286,25.75 L-9.09494702e-13,25.75 L-9.09494702e-13,30.7857143 L1.60714286,30.7857143 L1.60714286,29.2142857 L7.32142857,29.2142857 L7.32142857,31.1071429 L10.1428571,31.1071429 L10.1428571,31.1428571 L7.32142857,32.9285714 L7.32142857,35.2857143 L10.3214286,33 C10.3571429,33.25 10.4642857,33.5 10.5714286,33.6785714 C10.7142857,33.8928571 10.8571429,34.0357143 11.0357143,34.1785714 C11.2142857,34.3214286 11.4285714,34.4285714 11.6428571,34.5 C11.8571429,34.5714286 12.1071429,34.6071429 12.3571429,34.6071429 C12.75,34.6071429 13.0714286,34.5357143 13.3571429,34.4285714 C13.6428571,34.2857143 13.8928571,34.1071429 14.0714286,33.8928571 C14.25,33.6785714 14.3928571,33.3928571 14.4642857,33.0714286 C14.5357143,32.75 14.6071429,32.4285714 14.6071429,32.0714286 L14.6071429,37.4285714 L7.28571429,37.4285714 L7.28571429,39.3214286 L10.4642857,39.3214286 L10.4642857,39.3571429 L7.28571429,41.8214286 L7.28571429,44.2857143 L11.1428571,41.1071429 L14.6071429,44.0357143 L22.1785714,38.4642857 L22.1785714,0 L22.1785714,0 Z M13.0714286,15.5 C13.0714286,15.6785714 13.0714286,15.8571429 13.0714286,16.0357143 C13.0714286,16.2142857 13.0357143,16.3571429 12.9642857,16.4642857 C12.8928571,16.5714286 12.8214286,16.6785714 12.6785714,16.75 C12.5357143,16.8214286 12.3571429,16.8571429 12.1428571,16.8571429 C11.9285714,16.8571429 11.75,16.8214286 11.6071429,16.75 C11.5,16.6785714 11.3928571,16.5714286 11.3571429,16.4285714 C11.2857143,16.2857143 11.2857143,16.1428571 11.25,16 C11.2142857,15.8571429 11.25,15.6785714 11.25,15.5 L11.25,15.1785714 L13.0714286,15.1785714 L13.0714286,15.5 Z M14.6071429,41.7142857 L11.5714286,39.4285714 L11.5714286,39.3928571 L14.6071429,39.3928571 L14.6071429,41.7142857 Z M10,22.75 L12.3214286,23.5357143 L12.3214286,23.5714286 L10,24.3571429 L10,22.75 Z M13.1428571,31.3571429 C13.1428571,31.5 13.1428571,31.6785714 13.1071429,31.8214286 C13.0714286,31.9642857 13.0357143,32.1071429 12.9642857,32.25 C12.8928571,32.3928571 12.8214286,32.4642857 12.6785714,32.5714286 C12.5714286,32.6428571 12.3928571,32.6785714 12.2142857,32.6785714 C12,32.6785714 11.8571429,32.6428571 11.75,32.5714286 C11.6428571,32.5 11.5357143,32.3928571 11.4642857,32.25 C11.3928571,32.1071429 11.3571429,32 11.3214286,31.8214286 C11.2857143,31.6785714 11.2857143,31.5 11.2857143,31.3571429 L11.2857143,31.1785714 L13.1071429,31.1785714 L13.1071429,31.3571429 L13.1428571,31.3571429 Z M14.6071429,29.25 L7.28571429,29.25 L7.28571429,27.3571429 L14.6071429,24.6071429 L14.6071429,29.25 Z" id="Shape"></path>
                        <path d="M46.3928571,30.5357143 L45.25,30.5357143 C45.0714286,30.5357143 44.8928571,30.3571429 44.8928571,30.1785714 L44.8928571,25.8214286 C44.8928571,25.6428571 45.0714286,25.4642857 45.25,25.4642857 L46.3928571,25.4642857 C47.1785714,25.4642857 47.8214286,26.0357143 47.8214286,26.8928571 L47.8214286,29.1071429 C47.8214286,29.9642857 47.1785714,30.5357143 46.3928571,30.5357143 M47.1071429,26.8928571 C47.1071429,26.5 46.7857143,26.1428571 46.3928571,26.1428571 L45.6071429,26.1428571 L45.6071429,29.8214286 L46.3928571,29.8214286 C46.7857143,29.8214286 47.1071429,29.5 47.1071429,29.0714286 L47.1071429,26.8928571 Z" id="Shape"></path>
                        <path d="M52.4285714,30.5357143 L50.1785714,30.5357143 C50,30.5357143 49.8214286,30.3571429 49.8214286,30.1785714 L49.8214286,25.8214286 C49.8214286,25.6428571 50,25.4642857 50.1785714,25.4642857 L52.4285714,25.4642857 C52.6785714,25.4642857 52.7857143,25.6428571 52.7857143,25.8214286 C52.7857143,26 52.6785714,26.1785714 52.4285714,26.1785714 L50.5357143,26.1785714 L50.5357143,27.6071429 L51.8214286,27.6071429 C52.0714286,27.6071429 52.1785714,27.7857143 52.1785714,27.9642857 C52.1785714,28.1428571 52.0714286,28.3214286 51.8214286,28.3214286 L50.5357143,28.3214286 L50.5357143,29.8928571 L52.4285714,29.8928571 C52.6785714,29.8928571 52.7857143,30.0714286 52.7857143,30.25 C52.7857143,30.3571429 52.6428571,30.5357143 52.4285714,30.5357143" id="Path"></path>
                        <path d="M56,30.5714286 L55.9285714,30.5714286 C55.1428571,30.5714286 54.5,29.9285714 54.5,29.1428571 L54.5,25.75 C54.5,25.5 54.6785714,25.3928571 54.8571429,25.3928571 C55.0357143,25.3928571 55.2142857,25.5 55.2142857,25.75 L55.2142857,29.1428571 C55.2142857,29.5357143 55.5357143,29.8571429 55.9642857,29.8571429 L56.0357143,29.8571429 C56.4285714,29.8571429 56.75,29.5357143 56.75,29.1428571 L56.75,25.75 C56.75,25.5 56.9285714,25.3928571 57.1071429,25.3928571 C57.2857143,25.3928571 57.4642857,25.5 57.4642857,25.75 L57.4642857,29.1428571 C57.4285714,29.9285714 56.8214286,30.5714286 56,30.5714286" id="Path"></path>
                        <path d="M61.5357143,26.1428571 L60.8214286,26.1428571 L60.8214286,30.2142857 C60.8214286,30.4642857 60.6428571,30.5714286 60.4642857,30.5714286 C60.2857143,30.5714286 60.1071429,30.4642857 60.1071429,30.2142857 L60.1071429,26.1428571 L59.3928571,26.1428571 C59.1428571,26.1428571 59.0357143,25.9642857 59.0357143,25.7857143 C59.0357143,25.6071429 59.1428571,25.4285714 59.3928571,25.4285714 L61.5,25.4285714 C61.75,25.4285714 61.8571429,25.6071429 61.8571429,25.7857143 C61.8928571,25.9642857 61.7857143,26.1428571 61.5357143,26.1428571" id="Path"></path>
                        <path d="M64.7857143,30.5714286 L64.7142857,30.5714286 C63.9285714,30.5714286 63.2857143,30.0357143 63.2857143,29.1428571 C63.2857143,28.8928571 63.4642857,28.7857143 63.6428571,28.7857143 C63.8214286,28.7857143 64,28.8928571 64,29.1428571 C64,29.6071429 64.3214286,29.8928571 64.7142857,29.8928571 L64.7857143,29.8928571 C65.2142857,29.8928571 65.5357143,29.6428571 65.5357143,29.2142857 C65.5357143,28.1785714 63.3214286,28.1785714 63.3214286,26.8571429 L63.3214286,26.7142857 C63.3214286,25.9285714 64.0357143,25.4285714 64.7142857,25.4285714 L64.7857143,25.4285714 C65.5,25.4285714 66.1785714,25.8214286 66.1785714,26.5357143 L66.1785714,26.5714286 C66.1785714,26.7857143 66.0357143,26.8928571 65.8571429,26.8928571 C65.6428571,26.8928571 65.5357143,26.75 65.5,26.5714286 C65.4285714,26.1785714 65.2142857,26.1071429 64.8214286,26.1071429 L64.75,26.1071429 C64.4285714,26.1071429 64.0714286,26.3214286 64.0714286,26.6785714 L64.0714286,26.8214286 C64.0714286,27.5357143 66.2857143,27.6785714 66.2857143,29.2142857 C66.25,30.0357143 65.6071429,30.5714286 64.7857143,30.5714286" id="Path"></path>
                        <path d="M69.5,30.5714286 L69.4285714,30.5714286 C68.6428571,30.5714286 68,29.9642857 68,29.1785714 L68,26.8214286 C68,26.0357143 68.6428571,25.4285714 69.4285714,25.4285714 L69.5,25.4285714 C70.2142857,25.4285714 70.9285714,25.9285714 70.9285714,26.6428571 L70.9285714,26.6785714 C70.9285714,26.8928571 70.8214286,27.0714286 70.5714286,27.0714286 C70.3571429,27.0714286 70.2857143,26.9642857 70.2142857,26.7857143 C70.1428571,26.4285714 69.8928571,26.1428571 69.5,26.1428571 L69.4285714,26.1428571 C69,26.1428571 68.7142857,26.4285714 68.7142857,26.8571429 L68.7142857,29.2142857 C68.7142857,29.6428571 69.0357143,29.9285714 69.4285714,29.9285714 L69.5,29.9285714 C69.8928571,29.9285714 70.1428571,29.6428571 70.2142857,29.2857143 C70.25,29.1071429 70.3571429,29 70.5714286,29 C70.8214286,29 70.9285714,29.1428571 70.9285714,29.3928571 L70.9285714,29.4285714 C70.9285714,30.0714286 70.2142857,30.5714286 69.5,30.5714286" id="Path"></path>
                        <path d="M75.3214286,30.5714286 C75.1428571,30.5714286 74.9642857,30.4642857 74.9642857,30.2142857 L74.9642857,28.25 L73.4285714,28.25 L73.4285714,30.2142857 C73.4285714,30.4642857 73.25,30.5714286 73.0714286,30.5714286 C72.8928571,30.5714286 72.7142857,30.4642857 72.7142857,30.2142857 L72.7142857,25.75 C72.7142857,25.5 72.8928571,25.3928571 73.0714286,25.3928571 C73.25,25.3928571 73.4285714,25.5 73.4285714,25.75 L73.4285714,27.5714286 L74.9642857,27.5714286 L74.9642857,25.75 C74.9642857,25.5 75.1428571,25.3928571 75.3214286,25.3928571 C75.5,25.3928571 75.6785714,25.5 75.6785714,25.75 L75.6785714,30.2142857 C75.6785714,30.4642857 75.5,30.5714286 75.3214286,30.5714286" id="Path"></path>
                        <path d="M80.3571429,30.5357143 L78.1071429,30.5357143 C77.9285714,30.5357143 77.75,30.3571429 77.75,30.1785714 L77.75,25.8214286 C77.75,25.6428571 77.9285714,25.4642857 78.1071429,25.4642857 L80.3571429,25.4642857 C80.6071429,25.4642857 80.7142857,25.6428571 80.7142857,25.8214286 C80.7142857,26 80.6071429,26.1785714 80.3571429,26.1785714 L78.4642857,26.1785714 L78.4642857,27.6071429 L79.75,27.6071429 C80,27.6071429 80.1071429,27.7857143 80.1071429,27.9642857 C80.1071429,28.1428571 80,28.3214286 79.75,28.3214286 L78.4642857,28.3214286 L78.4642857,29.8928571 L80.3571429,29.8928571 C80.6071429,29.8928571 80.7142857,30.0714286 80.7142857,30.25 C80.7142857,30.3571429 80.6071429,30.5357143 80.3571429,30.5357143" id="Path"></path>
                        <path d="M28.4285714,30.5357143 L27.2857143,30.5357143 C27.1071429,30.5357143 26.9285714,30.3571429 26.9285714,30.1785714 L26.9285714,25.8214286 C26.9285714,25.6428571 27.1071429,25.4642857 27.2857143,25.4642857 L28.4285714,25.4642857 C29.2142857,25.4642857 29.8571429,26.0357143 29.8571429,26.8928571 L29.8571429,29.1071429 C29.8571429,29.9642857 29.2142857,30.5357143 28.4285714,30.5357143 M29.1428571,26.8928571 C29.1428571,26.5 28.8214286,26.1428571 28.4285714,26.1428571 L27.6428571,26.1428571 L27.6428571,29.8214286 L28.4285714,29.8214286 C28.8214286,29.8214286 29.1428571,29.5 29.1428571,29.0714286 L29.1428571,26.8928571 Z" id="Shape"></path>
                        <path d="M34.4642857,30.5357143 L32.2142857,30.5357143 C32.0357143,30.5357143 31.8571429,30.3571429 31.8571429,30.1785714 L31.8571429,25.8214286 C31.8571429,25.6428571 32.0357143,25.4642857 32.2142857,25.4642857 L34.4642857,25.4642857 C34.7142857,25.4642857 34.8214286,25.6428571 34.8214286,25.8214286 C34.8214286,26 34.7142857,26.1785714 34.4642857,26.1785714 L32.5714286,26.1785714 L32.5714286,27.6071429 L33.8571429,27.6071429 C34.1071429,27.6071429 34.2142857,27.7857143 34.2142857,27.9642857 C34.2142857,28.1428571 34.1071429,28.3214286 33.8571429,28.3214286 L32.5714286,28.3214286 L32.5714286,29.8928571 L34.4642857,29.8928571 C34.7142857,29.8928571 34.8214286,30.0714286 34.8214286,30.25 C34.7857143,30.3571429 34.6785714,30.5357143 34.4642857,30.5357143" id="Path"></path>
                        <path d="M38.5714286,28.3214286 L39.3928571,30.0714286 C39.4285714,30.1428571 39.4285714,30.1785714 39.4285714,30.2142857 C39.4285714,30.4285714 39.2857143,30.5714286 39.0714286,30.5714286 C38.9642857,30.5714286 38.8214286,30.5357143 38.7857143,30.3928571 L37.8214286,28.3928571 L37.2142857,28.3928571 L37.2142857,30.25 C37.2142857,30.5 37.0357143,30.6071429 36.8571429,30.6071429 C36.6785714,30.6071429 36.5,30.5 36.5,30.25 L36.5,25.8214286 C36.5,25.6428571 36.6785714,25.4642857 36.8571429,25.4642857 L38.0714286,25.4642857 C38.8571429,25.4642857 39.5,26.1071429 39.5,26.8928571 L39.5,26.9642857 C39.5357143,27.6071429 39.1428571,28.1428571 38.5714286,28.3214286 M38.8214286,26.8928571 C38.8214286,26.4642857 38.5357143,26.1428571 38.1071429,26.1428571 L37.25,26.1428571 L37.25,27.6785714 L38.1071429,27.6785714 C38.5,27.6785714 38.8214286,27.3571429 38.8214286,26.9642857 L38.8214286,26.8928571 Z" id="Shape"></path>
                        <path d="M28.4285714,38.3928571 L27.2857143,38.3928571 C27.1071429,38.3928571 26.9285714,38.2142857 26.9285714,38.0357143 L26.9285714,33.6785714 C26.9285714,33.5 27.1071429,33.3214286 27.2857143,33.3214286 L28.4285714,33.3214286 C29.2142857,33.3214286 29.8571429,33.8928571 29.8571429,34.75 L29.8571429,36.9642857 C29.8571429,37.8214286 29.2142857,38.3928571 28.4285714,38.3928571 M29.1428571,34.75 C29.1428571,34.3571429 28.8214286,34 28.4285714,34 L27.6428571,34 L27.6428571,37.6785714 L28.4285714,37.6785714 C28.8214286,37.6785714 29.1428571,37.3571429 29.1428571,36.9285714 L29.1428571,34.75 Z" id="Shape"></path>
                        <path d="M32.2857143,38.4285714 C32.1071429,38.4285714 31.9285714,38.3214286 31.9285714,38.0714286 L31.9285714,33.6071429 C31.9285714,33.3571429 32.1071429,33.25 32.2857143,33.25 C32.4642857,33.25 32.6428571,33.3571429 32.6428571,33.6071429 L32.6428571,38.0714286 C32.6428571,38.3214286 32.4642857,38.4285714 32.2857143,38.4285714" id="Path"></path>
                        <path d="M36.2142857,38.4285714 L36.1428571,38.4285714 C35.3571429,38.4285714 34.7142857,37.8214286 34.7142857,37.0357143 L34.7142857,34.6785714 C34.7142857,33.8928571 35.3571429,33.2857143 36.1428571,33.2857143 L36.2142857,33.2857143 C36.9642857,33.2857143 37.5714286,33.7857143 37.6428571,34.4285714 L37.6428571,34.4642857 C37.6428571,34.6785714 37.4642857,34.7857143 37.2857143,34.7857143 C37.1428571,34.7857143 36.9642857,34.7142857 36.9285714,34.4642857 C36.8928571,34.1428571 36.5357143,33.9642857 36.1785714,33.9642857 L36.1071429,33.9642857 C35.7142857,33.9642857 35.3928571,34.25 35.3928571,34.6785714 L35.3928571,37.0357143 C35.3928571,37.4642857 35.7142857,37.75 36.1071429,37.75 L36.1785714,37.75 C36.5714286,37.75 36.8928571,37.4285714 36.8928571,37 L36.8928571,36.25 L36.2857143,36.25 C36.0357143,36.25 35.9285714,36.0714286 35.9285714,35.8928571 C35.9285714,35.7142857 36.0357143,35.5357143 36.2857143,35.5357143 L37.2142857,35.5357143 C37.4285714,35.5357143 37.5714286,35.6785714 37.5714286,35.8928571 L37.5714286,37 C37.6428571,37.7857143 37,38.4285714 36.2142857,38.4285714" id="Path"></path>
                        <path d="M40.0714286,38.4285714 C39.8928571,38.4285714 39.7142857,38.3214286 39.7142857,38.0714286 L39.7142857,33.6071429 C39.7142857,33.3571429 39.8928571,33.25 40.0714286,33.25 C40.25,33.25 40.4285714,33.3571429 40.4285714,33.6071429 L40.4285714,38.0714286 C40.4285714,38.3214286 40.25,38.4285714 40.0714286,38.4285714" id="Path"></path>
                        <path d="M44.5714286,34 L43.8571429,34 L43.8571429,38.0714286 C43.8571429,38.3214286 43.6785714,38.4285714 43.5,38.4285714 C43.3214286,38.4285714 43.1428571,38.3214286 43.1428571,38.0714286 L43.1428571,34 L42.4285714,34 C42.1785714,34 42.0714286,33.8214286 42.0714286,33.6428571 C42.0714286,33.4642857 42.1785714,33.2857143 42.4285714,33.2857143 L44.5357143,33.2857143 C44.7857143,33.2857143 44.8928571,33.4642857 44.8928571,33.6428571 C44.9285714,33.8214286 44.8214286,34 44.5714286,34" id="Path"></path>
                        <path d="M49.4642857,38.4285714 C49.3214286,38.4285714 49.1785714,38.3571429 49.1428571,38.1785714 L48.8571429,37.2142857 L47.2142857,37.2142857 L46.9285714,38.1785714 C46.8928571,38.3571429 46.7142857,38.4285714 46.5714286,38.4285714 C46.3571429,38.4285714 46.2142857,38.2857143 46.2142857,38.1071429 C46.2142857,38.0714286 46.2142857,38.0357143 46.2142857,38 L47.6071429,33.5714286 C47.6785714,33.3928571 47.8571429,33.2857143 48,33.2857143 C48.1785714,33.2857143 48.3571429,33.3571429 48.3928571,33.5714286 L49.7857143,38 C49.7857143,38.0357143 49.7857143,38.0714286 49.7857143,38.1071429 C49.8214286,38.2857143 49.6785714,38.4285714 49.4642857,38.4285714 M48,34.5714286 L47.3928571,36.5357143 L48.5714286,36.5357143 L48,34.5714286 Z" id="Shape"></path>
                        <path d="M53.8928571,38.3928571 L51.9285714,38.3928571 C51.7142857,38.3928571 51.5714286,38.2142857 51.5714286,38.0357143 L51.5714286,33.6071429 C51.5714286,33.3571429 51.75,33.25 51.9285714,33.25 C52.1071429,33.25 52.2857143,33.3571429 52.2857143,33.6071429 L52.2857143,37.6785714 L53.8928571,37.6785714 C54.1428571,37.6785714 54.25,37.8571429 54.25,38.0357143 C54.2142857,38.2142857 54.1071429,38.3928571 53.8928571,38.3928571" id="Path"></path>
                        <path d="M57.5,36.1785714 L56.6785714,36.1785714 L56.6785714,38.0714286 C56.6785714,38.3214286 56.5,38.4285714 56.3214286,38.4285714 C56.1428571,38.4285714 55.9642857,38.3214286 55.9642857,38.0714286 L55.9642857,33.6428571 C55.9642857,33.4642857 56.1071429,33.2857143 56.3214286,33.2857143 L57.5,33.2857143 C58.2857143,33.2857143 58.8928571,33.9285714 58.8928571,34.7142857 C58.8928571,35.5357143 58.2857143,36.1785714 57.5,36.1785714 M57.5,34 L56.6785714,34 L56.6785714,35.4642857 L57.5,35.4642857 C57.9285714,35.4642857 58.1785714,35.1428571 58.1785714,34.7142857 C58.1785714,34.3214286 57.9285714,34 57.5,34" id="Shape"></path>
                        <path d="M62.6428571,36.1785714 L63.4642857,37.9285714 C63.5,38 63.5,38.0357143 63.5,38.0714286 C63.5,38.2857143 63.3571429,38.4285714 63.1428571,38.4285714 C63.0357143,38.4285714 62.8928571,38.3928571 62.8571429,38.25 L61.8928571,36.25 L61.2857143,36.25 L61.2857143,38.1071429 C61.2857143,38.3571429 61.1071429,38.4642857 60.9285714,38.4642857 C60.75,38.4642857 60.5714286,38.3571429 60.5714286,38.1071429 L60.5714286,33.6785714 C60.5714286,33.5 60.75,33.3214286 60.9285714,33.3214286 L62.1428571,33.3214286 C62.9285714,33.3214286 63.5714286,33.9642857 63.5714286,34.75 L63.5714286,34.8214286 C63.5714286,35.4285714 63.2142857,35.9642857 62.6428571,36.1785714 M62.8571429,34.75 C62.8571429,34.3214286 62.5714286,34 62.1428571,34 L61.2857143,34 L61.2857143,35.5357143 L62.1428571,35.5357143 C62.5357143,35.5357143 62.8571429,35.2142857 62.8571429,34.8214286 L62.8571429,34.75 Z" id="Shape"></path>
                        <path d="M68,38.3928571 L65.75,38.3928571 C65.5714286,38.3928571 65.3928571,38.2142857 65.3928571,38.0357143 L65.3928571,33.6785714 C65.3928571,33.5 65.5714286,33.3214286 65.75,33.3214286 L68,33.3214286 C68.25,33.3214286 68.3571429,33.5 68.3571429,33.6785714 C68.3571429,33.8571429 68.25,34.0357143 68,34.0357143 L66.1071429,34.0357143 L66.1071429,35.4642857 L67.3928571,35.4642857 C67.6428571,35.4642857 67.75,35.6428571 67.75,35.8214286 C67.75,36 67.6428571,36.1785714 67.3928571,36.1785714 L66.1071429,36.1785714 L66.1071429,37.75 L68,37.75 C68.25,37.75 68.3571429,37.9285714 68.3571429,38.1071429 C68.3571429,38.2142857 68.25,38.3928571 68,38.3928571" id="Path"></path>
                        <path d="M70.5357143,38.4285714 C70.3571429,38.4285714 70.1785714,38.3214286 70.1785714,38.0714286 L70.1785714,33.6071429 C70.1785714,33.3571429 70.3571429,33.25 70.5357143,33.25 C70.7142857,33.25 70.8928571,33.3571429 70.8928571,33.6071429 L70.8928571,38.0714286 C70.8571429,38.3214286 70.6785714,38.4285714 70.5357143,38.4285714" id="Path"></path>
                        <path d="M74.2857143,38.4285714 L74.2142857,38.4285714 C73.4285714,38.4285714 72.7857143,37.8928571 72.7857143,37 C72.7857143,36.75 72.9642857,36.6428571 73.1428571,36.6428571 C73.3214286,36.6428571 73.5,36.75 73.5,37 C73.5,37.4642857 73.8214286,37.75 74.2142857,37.75 L74.2857143,37.75 C74.7142857,37.75 75.0357143,37.5 75.0357143,37.0714286 C75.0357143,36.0357143 72.8214286,36.0357143 72.8214286,34.7142857 L72.8214286,34.5714286 C72.8214286,33.7857143 73.5357143,33.2857143 74.2142857,33.2857143 L74.2857143,33.2857143 C75,33.2857143 75.6785714,33.6785714 75.6785714,34.3928571 L75.6785714,34.4285714 C75.6785714,34.6428571 75.5357143,34.75 75.3571429,34.75 C75.1428571,34.75 75.0357143,34.6071429 75,34.4285714 C74.9285714,34.0357143 74.7142857,33.9642857 74.3214286,33.9642857 L74.25,33.9642857 C73.9285714,33.9642857 73.5714286,34.1785714 73.5714286,34.5357143 L73.5714286,34.6785714 C73.5714286,35.3928571 75.7857143,35.5357143 75.7857143,37.0714286 C75.75,37.8928571 75.1071429,38.4285714 74.2857143,38.4285714" id="Path"></path>
                        <path d="M9.28571429,52.3928571 L5.96428571,52.3928571 L5.96428571,55.0357143 L8.28571429,55.0357143 C8.57142857,55.0357143 8.75,55.25 8.75,55.5 C8.75,55.7142857 8.60714286,55.9642857 8.28571429,55.9642857 L5.96428571,55.9642857 L5.96428571,59.4285714 C5.96428571,59.7142857 5.75,59.8928571 5.5,59.8928571 C5.28571429,59.8928571 5.03571429,59.75 5.03571429,59.4285714 L5.03571429,51.9285714 C5.03571429,51.6785714 5.25,51.4642857 5.5,51.4642857 L9.28571429,51.4642857 C9.60714286,51.4642857 9.75,51.6785714 9.75,51.9285714 C9.75,52.1785714 9.60714286,52.3928571 9.28571429,52.3928571" id="Path"></path>
                        <path d="M12.1071429,59.4285714 C12.1071429,59.7142857 11.8928571,59.8928571 11.6428571,59.8928571 C11.4285714,59.8928571 11.1785714,59.75 11.1785714,59.4285714 L11.1785714,51.8571429 C11.1785714,51.5714286 11.3928571,51.3928571 11.6428571,51.3928571 C11.8571429,51.3928571 12.1071429,51.5357143 12.1071429,51.8571429 L12.1071429,59.4285714 Z" id="Path"></path>
                        <path d="M19.3571429,59.3571429 C19.3571429,59.75 19.1071429,59.8928571 18.8214286,59.8928571 C18.6428571,59.8928571 18.3571429,59.8928571 18.1785714,59.5 L15.5357143,53.5357143 L15.5357143,59.4285714 C15.5357143,59.7142857 15.3214286,59.8928571 15.0714286,59.8928571 C14.8571429,59.8928571 14.6071429,59.75 14.6071429,59.4285714 L14.6071429,51.8571429 C14.6071429,51.5357143 14.8571429,51.3928571 15.1428571,51.3928571 C15.4285714,51.3928571 15.6071429,51.4642857 15.75,51.7857143 L18.3571429,57.7857143 L18.3571429,51.8928571 C18.3571429,51.6071429 18.6071429,51.4285714 18.8214286,51.4285714 C19.0357143,51.4285714 19.2857143,51.5714286 19.2857143,51.8928571 L19.2857143,59.3571429 L19.3571429,59.3571429 Z" id="Path"></path>
                        <path d="M26.4285714,59.8928571 C26.25,59.8928571 26.0714286,59.8214286 26,59.5714286 L25.4642857,57.8214286 L22.4642857,57.8214286 L21.9285714,59.5714286 C21.8571429,59.7857143 21.6785714,59.8928571 21.5,59.8928571 C21.2142857,59.8928571 21.0357143,59.7142857 21.0357143,59.4642857 C21.0357143,59.4285714 21.0357143,59.3928571 21.0714286,59.3214286 L23.4285714,51.75 C23.5,51.5357143 23.7142857,51.4285714 23.9642857,51.4285714 C24.2142857,51.4285714 24.4642857,51.5357143 24.5357143,51.75 L26.8928571,59.3214286 C26.8928571,59.3928571 26.9285714,59.4285714 26.9285714,59.4642857 C26.8928571,59.6785714 26.7142857,59.8928571 26.4285714,59.8928571 M25.1785714,56.8928571 L23.9642857,53.0357143 L22.7857143,56.8928571 L25.1785714,56.8928571 Z" id="Shape"></path>
                        <path d="M32.3571429,59.8214286 L29.0714286,59.8214286 C28.8214286,59.8214286 28.6071429,59.6071429 28.6071429,59.3571429 L28.6071429,51.8571429 C28.6071429,51.5714286 28.8214286,51.3928571 29.0714286,51.3928571 C29.2857143,51.3928571 29.5357143,51.5357143 29.5357143,51.8571429 L29.5357143,58.8928571 L32.3928571,58.8928571 C32.6785714,58.8928571 32.8571429,59.1071429 32.8571429,59.3571429 C32.8214286,59.6071429 32.6428571,59.8214286 32.3571429,59.8214286" id="Path"></path>
                        <path d="M35.5357143,59.4285714 C35.5357143,59.7142857 35.3214286,59.8928571 35.0714286,59.8928571 C34.8571429,59.8928571 34.6071429,59.75 34.6071429,59.4285714 L34.6071429,51.8571429 C34.6071429,51.5714286 34.8214286,51.3928571 35.0714286,51.3928571 C35.2857143,51.3928571 35.5357143,51.5357143 35.5357143,51.8571429 L35.5357143,59.4285714 Z" id="Path"></path>
                        <path d="M40.1071429,59.8928571 L40,59.8928571 C38.75,59.8928571 37.6071429,59.1428571 37.6071429,57.6785714 C37.6071429,57.3928571 37.8214286,57.2142857 38.0714286,57.2142857 C38.2857143,57.2142857 38.5357143,57.3571429 38.5357143,57.6785714 C38.5357143,58.5357143 39.25,59 40.0357143,59 L40.1428571,59 C41.1071429,59 41.5,58.5357143 41.5,57.6428571 C41.5,56.6428571 40.7857143,56.3571429 40.0714286,55.9642857 C38.9285714,55.3214286 37.75,55.0357143 37.75,53.4642857 C37.75,52.2857143 38.75,51.3928571 40.0357143,51.3928571 L40.1428571,51.3928571 C41.2857143,51.3928571 42.3571429,52.2142857 42.3571429,53.3214286 C42.3571429,53.6071429 42.1428571,53.7857143 41.9285714,53.7857143 C41.7142857,53.7857143 41.4642857,53.6428571 41.4285714,53.3571429 C41.3571429,52.75 40.8571429,52.3214286 40.1071429,52.3214286 L40,52.3214286 C39,52.3214286 38.6785714,53.0357143 38.6785714,53.4642857 C38.6785714,54.3571429 39.4285714,54.6071429 40.0714286,54.9642857 C41.2857143,55.6071429 42.4285714,56 42.4285714,57.6428571 C42.4285714,59.0357143 41.5714286,59.8928571 40.1071429,59.8928571" id="Path"></path>
                        <path d="M47.4642857,52.3928571 L46.1428571,52.3928571 L46.1428571,59.4285714 C46.1428571,59.7142857 45.9285714,59.8928571 45.6785714,59.8928571 C45.4642857,59.8928571 45.2142857,59.75 45.2142857,59.4285714 L45.2142857,52.3928571 L43.8928571,52.3928571 C43.6071429,52.3928571 43.4285714,52.1785714 43.4285714,51.9285714 C43.4285714,51.6785714 43.5714286,51.4642857 43.8928571,51.4642857 L47.4642857,51.4642857 C47.75,51.4642857 47.9285714,51.6785714 47.9285714,51.9285714 C47.9285714,52.1785714 47.7857143,52.3928571 47.4642857,52.3928571" id="Path"></path>
                        <path d="M57.25,59.8214286 L54.1428571,59.8214286 C53.6071429,59.8214286 53.5357143,59.1785714 53.7857143,58.8214286 L56.5357143,54.2142857 C56.75,53.8214286 56.75,53.6785714 56.75,53.4285714 L56.75,53.3571429 C56.75,52.7857143 56.3571429,52.2857143 55.7142857,52.2857143 L55.6785714,52.2857143 C55.1071429,52.2857143 54.6785714,52.75 54.6785714,53.2857143 L54.6785714,53.4285714 C54.6785714,53.7142857 54.4642857,53.8928571 54.2142857,53.8928571 C54,53.8928571 53.75,53.75 53.75,53.4285714 L53.75,53.2857143 C53.75,52.2142857 54.6071429,51.3571429 55.6785714,51.3571429 L55.7142857,51.3571429 C56.7857143,51.3571429 57.6785714,52.2142857 57.6785714,53.2857143 L57.6785714,53.3571429 C57.6785714,53.7142857 57.6428571,54.1071429 57.3571429,54.5714286 L54.8214286,58.8571429 L57.2857143,58.8571429 C57.5714286,58.8571429 57.75,59.0714286 57.75,59.3214286 C57.7142857,59.6071429 57.5357143,59.8214286 57.25,59.8214286" id="Path"></path>
                        <path d="M63.75,57.9642857 C63.75,59.0357143 62.8928571,59.8928571 61.7857143,59.8928571 L61.6428571,59.8928571 C60.5714286,59.8928571 59.7142857,59.0357143 59.7142857,57.9642857 L59.7142857,53.3571429 C59.7142857,52.2857143 60.5714286,51.4285714 61.6428571,51.4285714 L61.7857143,51.4285714 C62.8928571,51.4285714 63.75,52.2857143 63.75,53.3571429 L63.75,57.9642857 Z M62.8214286,53.3571429 C62.8214286,52.7857143 62.3571429,52.3214286 61.7857143,52.3214286 L61.6428571,52.3214286 C61.0714286,52.3214286 60.6071429,52.7857143 60.6071429,53.3571429 L60.6071429,57.9642857 C60.6071429,58.5357143 61.0714286,59 61.6428571,59 L61.7857143,59 C62.3571429,59 62.8214286,58.5357143 62.8214286,57.9642857 L62.8214286,53.3571429 Z" id="Shape"></path>
                        <path d="M68.6428571,59.4285714 C68.6428571,59.7142857 68.4285714,59.8928571 68.1785714,59.8928571 C67.9642857,59.8928571 67.7142857,59.75 67.7142857,59.4285714 L67.7142857,52.8214286 L67.1071429,53.6785714 C66.75,54.1785714 66,53.6428571 66.3571429,53.1428571 L67.5,51.5714286 C67.5714286,51.4642857 67.6785714,51.3928571 67.8571429,51.3928571 L68.25,51.3928571 C68.5,51.3928571 68.5714286,51.5357143 68.5714286,51.7857143 L68.5714286,59.4285714 L68.6428571,59.4285714 Z" id="Path"></path>
                        <path d="M75.8214286,57.9285714 C75.8214286,59.1071429 74.9642857,59.8571429 73.8571429,59.8571429 L73.75,59.8571429 C72.7142857,59.8571429 71.8928571,59.1785714 71.8214286,58.25 C71.8214286,58.25 71.8214286,58.2142857 71.8214286,58.1785714 C71.8214286,57.8928571 72.0714286,57.7142857 72.3214286,57.7142857 C72.5,57.7142857 72.6785714,57.8214286 72.75,58.1071429 C72.8214286,58.6071429 73.1785714,58.9642857 73.7857143,58.9642857 L73.8928571,58.9642857 C74.4642857,58.9642857 74.9285714,58.5 74.9285714,57.9285714 L74.9285714,56.3928571 C74.6428571,56.7142857 74.1071429,56.8214286 73.8928571,56.8214286 L73.7857143,56.8214286 C72.6785714,56.8214286 71.8214286,55.9642857 71.8214286,54.8571429 L71.8214286,53.3571429 C71.8214286,52.25 72.6785714,51.3928571 73.7857143,51.3928571 L73.8928571,51.3928571 C75,51.3928571 75.8571429,52.25 75.8571429,53.3571429 L75.8571429,57.9285714 L75.8214286,57.9285714 Z M74.9285714,53.3571429 C74.9285714,52.7857143 74.4642857,52.3214286 73.8928571,52.3214286 L73.7857143,52.3214286 C73.2142857,52.3214286 72.75,52.7857143 72.75,53.3571429 L72.75,54.8571429 C72.75,55.4285714 73.2142857,55.8928571 73.7857143,55.8928571 L73.8928571,55.8928571 C74.4642857,55.8928571 74.9285714,55.4285714 74.9285714,54.8214286 L74.9285714,53.3571429 Z" id="Shape"></path>
                    </g>
                </g>
            </g>
        </g>
    </g>
</svg>